<?xml version="1.0" standalone="no"?>
<!DOCTYPE svg PUBLIC "-//W3C//DTD SVG 1.1//EN" "http://www.w3.org/Graphics/SVG/1.1/DTD/svg11.dtd" >
<svg xmlns="http://www.w3.org/2000/svg">
<metadata></metadata>
<defs>
<font id="conduit_itcbold" horiz-adv-x="1038" >
<font-face units-per-em="2048" ascent="1638" descent="-410" />
<missing-glyph horiz-adv-x="362" />
<glyph unicode="&#xfb01;" horiz-adv-x="1028" d="M59 655v174q0 20 21 21h47q20 0 20 20v58q0 92 41 172t111 127q121 84 227 84q31 0 31 -23v-174q0 -18 -19.5 -21t-62.5 -14q-35 -8 -63.5 -46t-28.5 -85v-78q0 -20 20 -20h134q20 0 20 -21v-174q0 -20 -20 -20h-134q-20 0 -20 -21v-594q0 -20 -21 -20h-194q-20 0 -21 20 v594q0 20 -20 21h-47q-20 0 -21 20zM657 1174q0 57 40 97t96 40q55 0 96 -41t41 -96t-41 -96.5t-96 -41.5t-95.5 40t-40.5 98zM676 20v898q0 20 20 20h195q20 0 20 -20v-898q0 -20 -20 -20h-195q-20 0 -20 20z" />
<glyph unicode="&#xfb02;" horiz-adv-x="1034" d="M59 655v174q0 20 21 21h47q20 0 20 20v39q0 78 29 147.5t82 123.5q53 53 123 81.5t147 28.5h369q20 0 21 -20v-1250q0 -20 -21 -20h-195q-20 0 -20 20v1035q0 20 -20 20h-134q-61 0 -103 -42t-42 -105v-58q0 -20 20 -20h134q20 0 20 -21v-174q0 -20 -20 -20h-134 q-20 0 -20 -21v-594q0 -20 -21 -20h-194q-20 0 -21 20v594q0 20 -20 21h-47q-20 0 -21 20z" />
<glyph horiz-adv-x="2048" />
<glyph horiz-adv-x="2048" />
<glyph unicode="&#xd;" horiz-adv-x="362" />
<glyph unicode=" "  horiz-adv-x="362" />
<glyph unicode="&#x09;" horiz-adv-x="362" />
<glyph unicode="&#xa0;" horiz-adv-x="362" />
<glyph unicode="!" horiz-adv-x="569" d="M176 117q0 57 41 97t96 40t96.5 -41t41.5 -96t-41 -96t-97 -41q-57 0 -97 40.5t-40 96.5zM197 735v535q0 20 20 20h193q20 0 20 -20v-535l-43 -364q-4 -18 -20 -19h-103q-18 0 -20 19z" />
<glyph unicode="&#x22;" horiz-adv-x="647" d="M68 1268v4q0 18 20 18h197q20 0 20 -18v-4l-47 -369q-4 -18 -20 -18h-101q-18 0 -20 18zM342 1268v4q0 18 20 18h197q20 0 21 -18v-4l-48 -369q-4 -18 -20 -18h-102q-18 0 -21 18z" />
<glyph unicode="#" horiz-adv-x="1138" d="M55 365q0 2 1 3t1 5l47 174q2 20 25 20h131q16 0 21 17l32 114q0 2 1 3t1 4q0 18 -22 18h-131q-16 0 -17 12q0 2 1 3t1 5l48 175q2 20 24 20h150q16 0 20 16l90 322q2 14 21 14h123q23 0 22 -18q0 -2 -1 -4t-1 -4l-84 -299q0 -2 -1 -4.5t-1 -4.5q0 -18 23 -18h157 q14 0 21 16l94 322q2 14 20 14h123q23 0 23 -18q0 -2 -1 -4t-1 -4l-84 -299q0 -4 -1 -5.5t-1 -3.5q0 -18 22 -18h117q16 0 16 -16v-4l-47 -175q-6 -20 -26 -20h-133q-18 0 -21 -12l-33 -117q0 -2 -1 -4t-1 -4q0 -18 23 -19h133q16 0 16 -16v-4l-47 -174q-6 -20 -26 -21h-148 q-16 0 -20 -12l-95 -326q-2 -14 -20 -14h-121q-23 0 -22 18q0 2 1 3.5t1 5.5l82 301q0 2 1 3t1 3q0 18 -23 18h-160q-18 0 -20 -12l-92 -326q-2 -14 -21 -14h-123q-23 0 -22 18q0 2 1 3.5t1 5.5l86 301q0 2 1 3t1 3q0 18 -23 18h-116q-16 0 -17 13zM453 586q0 -18 22 -19 h158q16 0 20 17l33 114q0 2 1 3t1 4q0 18 -22 18h-158q-18 0 -21 -12l-32 -117q0 -2 -1 -4t-1 -4z" />
<glyph unicode="$" d="M92 948q0 233 203 330q33 16 63.5 21.5t53 7.5t37 6t14.5 18v55q0 20 20 21h107q20 0 20 -21v-59q0 -12 8.5 -17t23.5 -8.5t39 -7.5t56 -14q59 -20 111 -74q47 -51 68.5 -87t21.5 -50q0 -10 -12 -16l-178 -88q-4 -2 -11 -2q-10 0 -15 10t-15 26q-23 39 -41.5 60.5 t-40.5 21.5q-14 0 -15 -22v-289l11 -16q172 -76 254.5 -178.5t82.5 -243.5q0 -55 -15 -104.5t-40.5 -91.5t-61.5 -72.5t-77 -45.5q-37 -14 -64.5 -19t-48 -9t-31 -10.5t-10.5 -18.5v-57q0 -20 -20 -21h-107q-20 0 -20 21v55q0 14 -16.5 18.5t-44 7.5t-64.5 10t-76 28 q-37 18 -66.5 47.5t-51 59.5t-33 56.5t-11.5 38.5q0 8 13 15l176 88q4 2 10 2q10 0 24.5 -24.5t43.5 -72.5q8 -14 30.5 -25t44.5 -11q20 0 21 20v322q-4 23 -40 36t-95 41q-117 57 -176.5 142.5t-59.5 189.5zM326 956q0 -25 11 -48t29.5 -41.5t40 -30t42.5 -11.5q14 0 14 21 v225q0 20 -21 21q-20 0 -40.5 -11.5t-38 -31t-27.5 -44t-10 -49.5zM610 227q0 -20 15 -20q35 0 67.5 40t32.5 95q0 25 -10 48.5t-24.5 41t-33 28.5t-32.5 11t-15 -22v-222z" />
<glyph unicode="%" horiz-adv-x="1120" d="M94 899v191q0 90 56.5 145t148.5 55q96 0 151.5 -53t55.5 -141v-197q0 -88 -55.5 -141t-151.5 -53q-94 0 -149.5 53t-55.5 141zM217 16q0 4 4 13l535 1249q2 6 18 12h109q23 0 22 -16q0 -4 -4 -12l-534 -1250q-6 -12 -19 -12h-108q-23 0 -23 16zM260 899q0 -39 39 -39 q16 0 28.5 12.5t12.5 26.5v197q0 14 -12.5 26.5t-28.5 12.5q-39 0 -39 -39v-197zM616 195v196q0 88 55.5 141.5t149.5 53.5t149.5 -53.5t55.5 -141.5v-196q0 -88 -55.5 -141.5t-149.5 -53.5t-149.5 53t-55.5 142zM782 195q0 -39 39 -39t39 39v196q0 39 -39 39t-39 -39v-196z " />
<glyph unicode="&#x26;" horiz-adv-x="1253" d="M109 358v50q0 39 11 75.5t30 61.5q37 51 58 77.5t21 32.5q0 8 -23.5 38t-64.5 85q-10 14 -21 53t-11 93q0 180 102 283.5t278 103.5t278.5 -103.5t102.5 -279.5v-39q0 -43 -17 -95.5t-52 -99.5q-12 -16 -27.5 -26.5t-30 -17.5t-23.5 -12t-9 -13q0 -6 10 -18.5t22.5 -25 t24.5 -21.5t16 -9q10 0 31 32.5t68 86.5q39 43 104.5 67.5t151.5 24.5h63q20 0 21 -21v-192q0 -20 -21 -21h-80q-61 0 -103 -42t-42 -105v-27l6 -14q27 -33 55.5 -52.5t57 -32.5t56.5 -21.5t52 -16.5q18 -6 19 -20v-197q0 -16 -11.5 -18t-35.5 -2q-106 0 -226 71 q-41 27 -63.5 42.5t-28.5 15.5t-32.5 -21.5t-80.5 -62.5q-25 -18 -74.5 -31.5t-121.5 -13.5h-60q-178 0 -279 101t-101 277zM342 342q0 -61 43 -104t104 -43h60q80 -1 137 81q4 4 4 7q0 23 -62.5 89t-197.5 152h-20q-68 -53 -68 -123v-59zM342 948q0 -98 143 -186l15 -4 q68 20 102.5 59t34.5 92v39q0 59 -43 103.5t-105 44.5q-61 0 -104 -43t-43 -105z" />
<glyph unicode="'" horiz-adv-x="372" d="M68 1268v4q0 18 20 18h197q20 0 20 -18v-4l-47 -369q-4 -18 -20 -18h-101q-18 0 -20 18z" />
<glyph unicode="(" horiz-adv-x="745" d="M168 29v1075q0 168 98 266q49 49 125 82t141 33q23 0 34.5 -3t11.5 -18v-176q0 -18 -20.5 -21t-63.5 -14q-37 -8 -65 -45t-28 -84v-1114q0 -47 29 -85t64 -46q43 -10 63.5 -13t20.5 -22v-176q0 -14 -11.5 -17t-34.5 -3q-66 0 -141.5 31.5t-124.5 82.5q-98 98 -98 267z " />
<glyph unicode=")" horiz-adv-x="745" d="M168 -156q0 18 17.5 20.5t58.5 12.5t69.5 47t28.5 86v1114q0 49 -28.5 85t-69.5 46t-58.5 12.5t-17.5 20.5v176q0 14 9 17.5t32 3.5q74 0 141.5 -26.5t117.5 -77t80 -121t30 -156.5v-1075q0 -168 -99 -267q-49 -51 -126 -82.5t-144 -31.5q-23 0 -32 3t-9 17v176z" />
<glyph unicode="*" horiz-adv-x="798" d="M41 948q0 10 14 17l158 63q14 6 14 19q0 12 -14 18l-156 68q-14 6 -14 16q0 4 4 12l82 142q6 12 16 12q4 0 15 -6l129 -107q6 -6 16 -6q16 0 17 21v6l-23 163v5q0 18 20 18h162q20 0 21 -18v-5l-23 -165v-4q0 -23 17 -23q6 0 16 6l137 109q8 6 15 6q10 0 16 -12l80 -140 q4 -8 4 -12q0 -10 -14 -16l-162 -70q-16 -6 -17 -18q0 -12 17 -19l164 -63q14 -6 14 -17q0 -4 -4 -12l-82 -139q-6 -12 -16 -13q-6 0 -15 7l-139 100q-12 8 -18 8q-14 0 -15 -18v-7l25 -174v-4q0 -18 -21 -18h-162q-20 0 -20 18v4l23 172v7q0 18 -15 18q-6 0 -18 -8 l-131 -103q-10 -6 -15 -6q-10 0 -16 13l-82 143q-4 8 -4 12z" />
<glyph unicode="+" d="M80 430v135q0 20 20 21h310q20 0 20 20v312q0 20 21 20h135q20 0 20 -20v-312q0 -20 21 -20h311q20 0 20 -21v-135q0 -20 -20 -20h-311q-20 0 -21 -21v-309q0 -20 -20 -21h-135q-20 0 -21 21v309q0 20 -20 21h-310q-20 0 -20 20z" />
<glyph unicode="," horiz-adv-x="471" d="M70 -131q0 6 14 17.5t31.5 27.5t32 38.5t14.5 55.5q0 23 -21 23h-22q-20 0 -21 20v199q0 20 21 20h233q20 0 21 -20v-150q0 -141 -62 -233q-20 -31 -45.5 -54.5t-50.5 -41t-44 -25.5t-26 -8q-12 0 -16 10l-55 109q-4 8 -4 12z" />
<glyph unicode="-" horiz-adv-x="569" d="M80 373v192q0 20 20 21h369q20 0 20 -21v-192q0 -20 -20 -21h-369q-20 0 -20 21z" />
<glyph unicode="." horiz-adv-x="471" d="M98 117q0 57 40 97t98 40q55 0 96 -41t41 -96t-41 -96t-96 -41q-57 0 -97.5 40.5t-40.5 96.5z" />
<glyph unicode="/" horiz-adv-x="675" d="M-16 16q0 4 4 13l534 1249q2 6 19 12h129q23 0 22 -16q0 -4 -4 -12l-534 -1250q-4 -10 -19 -12h-129q-23 0 -22 16z" />
<glyph unicode="0" d="M109 342v606q0 82 27.5 148.5t76.5 113.5t119.5 74t156.5 27h60q86 0 156.5 -27t119.5 -74t77 -113.5t28 -148.5v-606q0 -80 -28 -147.5t-77 -114.5t-119.5 -73.5t-156.5 -26.5h-60q-86 0 -156.5 25.5t-120.5 73.5t-76.5 114.5t-26.5 148.5zM342 342q0 -61 43 -104 t104 -43h60q61 0 103 42t42 105v606q0 63 -42 105.5t-103 42.5h-60q-61 0 -104 -43t-43 -105v-606z" />
<glyph unicode="1" d="M176 926q0 6 8 14l342 344l15 6h110q20 0 21 -20v-1034q0 -20 20 -21h193q20 0 20 -20v-175q0 -20 -20 -20h-662q-20 0 -20 20v175q0 20 20 20h193q20 0 20 21v600q0 23 -18 22q-8 0 -17 -8l-61 -64q-8 -8 -14 -8t-15 8l-127 125q-8 8 -8 15z" />
<glyph unicode="2" d="M98 1069q0 10 21.5 51t70.5 92q98 98 271 99h74q86 0 156.5 -27t120.5 -74t76.5 -113.5t26.5 -148.5q0 -80 -22.5 -139t-64.5 -109.5t-102 -94.5t-138 -93q-49 -31 -89 -58.5t-68 -57t-43 -63.5t-15 -77v-20q0 -20 20 -21h488q20 0 20 -20v-175q0 -20 -20 -20h-723 q-20 0 -21 20v236q0 82 22.5 147.5t67.5 123t112 108.5t155 102q92 53 140 98.5t48 112.5q0 61 -44 104.5t-103 43.5h-74q-72 0 -115 -66q-20 -29 -28.5 -49t-18.5 -20l-12 4l-176 90q-12 6 -13 14z" />
<glyph unicode="3" d="M98 1069q0 10 21.5 51t70.5 92q98 98 271 99h57q176 0 279.5 -103.5t103.5 -279.5v-29q0 -35 -13.5 -74t-35.5 -69q-31 -41 -50.5 -63.5t-19.5 -28.5t18.5 -27t47.5 -62q27 -37 40 -79.5t13 -77.5v-60q0 -176 -102.5 -277t-280.5 -101h-57q-174 0 -268 96q-49 51 -71 92 t-22 57q0 8 13 15l178 88q4 2 10 2q10 0 17.5 -15.5t23.5 -46.5q16 -35 49 -54t70 -19h57q59 0 103.5 43t44.5 104v70q0 61 -42 103t-106 42h-184q-20 0 -21 21v174q0 20 21 20h184q59 0 103.5 43t44.5 105v28q0 61 -44 104.5t-104 43.5h-57q-72 0 -115 -66 q-20 -29 -28.5 -49t-18.5 -20l-12 4l-176 90q-12 6 -13 14z" />
<glyph unicode="4" d="M53 303v174l535 805l16 8h189q20 0 20 -20v-752q0 -20 21 -20h133q20 0 20 -21v-174q0 -20 -20 -20h-133q-20 0 -21 -21v-242q0 -20 -20 -20h-195q-20 0 -20 20v242q0 20 -21 21h-483q-20 0 -21 20zM324 514q0 -16 22 -16h211q20 0 21 20v318q0 25 -19 24q-10 0 -18 -12 l-211 -318q-6 -10 -6 -16z" />
<glyph unicode="5" d="M133 225q0 8 12 15l177 88q4 2 10 2q10 0 16 -15q47 -121 144 -120h59q61 0 103 42t42 105v70q0 61 -42 103t-103 42h-342q-20 0 -21 21v692q0 20 21 20h682q20 0 20 -20v-174q0 -20 -20 -21h-447q-20 0 -20 -20v-262q0 -20 20 -21h107q178 0 279.5 -101.5t101.5 -275.5 v-37q0 -176 -101.5 -277t-279.5 -101h-59q-178 0 -269 96q-49 51 -69.5 92t-20.5 57z" />
<glyph unicode="6" d="M109 342v606q0 82 27.5 148.5t76.5 113.5t119.5 74t156.5 27h62q139 0 233 -68q31 -23 54.5 -48.5t41 -51t26.5 -46t9 -28.5q0 -10 -12 -16l-178 -86q-4 -2 -10 -2q-12 0 -27 30q-29 49 -57.5 75t-79.5 26h-62q-61 0 -103 -42t-42 -106v-186q0 -23 14 -23q20 0 57.5 21.5 t94.5 21.5h61q78 0 144.5 -27.5t115 -75.5t76 -114.5t27.5 -144.5v-78q0 -82 -27.5 -148.5t-78 -114.5t-121 -73.5t-156.5 -25.5h-62q-86 0 -156.5 25.5t-120.5 73.5t-76.5 114.5t-26.5 148.5zM344 342q0 -63 42 -105t103 -42h62q61 0 104 43t43 104v78q0 59 -43 103 t-104 44h-62q-61 0 -103 -42t-42 -105v-78z" />
<glyph unicode="7" d="M158 1096v174q0 20 20 20h721q20 0 21 -20v-236q0 -86 -20.5 -150.5t-59.5 -117.5t-95.5 -100.5t-130.5 -98.5q-43 -29 -76.5 -54.5t-57 -51t-37 -54t-13.5 -65.5v-322q0 -20 -20 -20h-193q-20 0 -20 20v322q0 72 16 128t50 104.5t83 92.5t115 89q49 35 90 64.5t71.5 60 t47 67.5t16.5 86v21q0 20 -20 20h-488q-20 0 -20 21z" />
<glyph unicode="8" d="M109 358v50q0 37 13 78.5t38 76.5q29 41 47 62.5t18 27.5t-18.5 29t-50.5 66q-23 29 -35 67.5t-12 73.5v39q0 178 102 280.5t278 102.5h60q174 0 277.5 -103.5t103.5 -279.5v-39q0 -35 -12.5 -74t-34.5 -67q-33 -43 -51.5 -66t-18.5 -29t18.5 -27.5t47.5 -62.5 q25 -35 38 -77t13 -78v-50q0 -174 -102.5 -276t-278.5 -102h-60q-178 0 -279 101t-101 277zM342 342q0 -61 43 -104t104 -43h60q61 0 103 42t42 105v59q0 61 -42 103.5t-103 42.5h-60q-63 0 -105 -42t-42 -104v-59zM342 909q0 -61 43 -104t104 -43h60q61 0 103 42t42 105v39 q0 63 -42 105.5t-103 42.5h-60q-61 0 -104 -43t-43 -105v-39z" />
<glyph unicode="9" d="M109 801v147q0 82 27.5 148.5t76.5 113.5t119.5 74t156.5 27h62q86 0 156.5 -27t121 -74t78 -113.5t27.5 -148.5v-606q0 -82 -27.5 -148.5t-78 -114.5t-121 -73.5t-156.5 -25.5h-62q-172 0 -266 96q-49 51 -70.5 92t-21.5 57q0 8 12 15l176 88q4 2 11 2q10 0 17 -16.5 t24 -49.5q16 -31 48 -50t70 -19h62q61 0 104 43t43 104v117q0 23 -14 22q-20 0 -57 -20.5t-95 -20.5h-61q-80 0 -146.5 27t-114.5 75t-74.5 114.5t-26.5 144.5zM344 801q0 -63 41 -104.5t104 -41.5h62q63 0 105 42t42 104v147q0 61 -43 104.5t-104 43.5h-62q-61 0 -103 -42 t-42 -106v-147z" />
<glyph unicode=":" horiz-adv-x="471" d="M98 117q0 57 40 97t98 40q55 0 96 -41t41 -96t-41 -96t-96 -41q-57 0 -97.5 40.5t-40.5 96.5zM98 645q0 55 40 96t98 41q55 0 96 -41t41 -96q0 -57 -41 -97t-96 -40q-57 0 -97.5 40t-40.5 97z" />
<glyph unicode=";" horiz-adv-x="471" d="M70 -131q0 6 14 17.5t31.5 27.5t32 38.5t14.5 55.5q0 23 -21 23h-22q-20 0 -21 20v199q0 20 21 20h233q20 0 21 -20v-150q0 -141 -62 -233q-20 -31 -45.5 -54.5t-50.5 -41t-44 -25.5t-26 -8q-12 0 -16 10l-55 109q-4 8 -4 12zM98 645q0 55 40 96t98 41q55 0 96 -41 t41 -96q0 -57 -41 -97t-96 -40q-57 0 -97.5 40t-40.5 97z" />
<glyph unicode="&#x3c;" d="M121 430v141l10 19l645 377q8 4 10 4q12 0 19 -13l69 -114q4 -8 5 -13q0 -10 -13 -16l-508 -295q-14 -8 -14 -18t14 -19l506 -290q12 -6 13 -17q0 -4 -5 -12l-67 -121q-6 -12 -17 -12q-4 0 -12 4l-645 377z" />
<glyph unicode="=" d="M80 256v133q0 20 20 21h838q20 0 20 -21v-133q0 -20 -20 -20h-838q-20 0 -20 20zM80 606v135q0 20 20 21h838q20 0 20 -21v-135q0 -20 -20 -20h-838q-20 0 -20 20z" />
<glyph unicode="&#x3e;" d="M164 176q0 10 12 17l504 290q14 10 14 19q0 8 -14 18l-504 295q-12 6 -12 16q0 4 4 13l70 114q6 12 16 13q4 0 12 -4l641 -377l11 -19v-141l-11 -18l-641 -377q-8 -4 -12 -4q-10 0 -16 12l-70 121q-4 8 -4 12z" />
<glyph unicode="?" d="M104 1069q0 10 21.5 51t71.5 92q98 98 270 99h74q86 0 156.5 -27t119.5 -74t77 -114.5t28 -147.5q0 -225 -185 -315q-43 -23 -78.5 -39t-61.5 -33.5t-39 -41t-13 -56.5q0 -29 6 -51.5t6 -38.5q0 -20 -20 -21h-195q-33 0 -33 140q0 96 44 158.5t141 111.5q43 23 78.5 40 t60 37.5t39 46t14.5 62.5q0 63 -43 105.5t-102 42.5h-74q-72 0 -115 -66q-20 -29 -28.5 -49t-18.5 -20l-12 4l-176 90q-12 6 -13 14zM324 117q0 57 41 97t96 40t96 -40t41 -97q0 -55 -40 -96t-97 -41t-97 40.5t-40 96.5z" />
<glyph unicode="@" horiz-adv-x="1447" d="M168 367v557q0 82 27.5 149.5t78 115.5t121 74.5t158.5 26.5h344q86 0 157.5 -26.5t122 -74.5t78 -115.5t27.5 -149.5v-414q0 -90 -57.5 -145.5t-155.5 -55.5h-25q-80 0 -151 53l-12 3q-86 -55 -170 -56q-117 0 -191 72t-74 190v158q0 57 20.5 105.5t55.5 82t82 53 t103 19.5q43 0 116 -22h15q2 23 26 22h105q31 0 30 -28v-441q0 -49 48 -49h22q20 0 33.5 13.5t13.5 35.5v404q0 92 -58.5 146t-160.5 54h-344q-102 0 -161.5 -54t-59.5 -146v-557q0 -92 58.5 -146.5t162.5 -54.5h526q31 0 31 -31v-104q0 -31 -31 -31h-526q-88 0 -158.5 26.5 t-121 75t-78 116t-27.5 149.5zM612 584q0 -47 32 -80t79 -33t81 34t34 79v129q0 45 -34 78.5t-81 33.5t-79 -32.5t-32 -79.5v-129z" />
<glyph unicode="A" horiz-adv-x="921" d="M-15 21.5q1 1.5 1 5.5l381 1249q6 14 20 14h148q14 0 20 -14l381 -1249q0 -4 1 -5.5t1 -3.5q0 -18 -23 -18h-206q-18 0 -21 14l-61 215q-2 12 -21 13h-293q-18 0 -20 -13l-62 -215q-2 -14 -20 -14h-205q-22 0 -22 17q0 3 1 4.5zM362 475q0 -18 23 -18h150q22 0 22 17 q0 3 -1 5t-1 4l-68 271q-2 10 -7 37.5t-15 74.5h-6q-23 -98 -25 -112l-69 -271q0 -2 -1.5 -4t-1.5 -4z" />
<glyph unicode="B" horiz-adv-x="1097" d="M137 20v1250q0 20 21 20h460q176 0 278.5 -102.5t102.5 -278.5v-20q0 -35 -11 -73t-34 -66q-33 -43 -52 -67t-19 -30t19.5 -28.5t47.5 -63.5q23 -35 36 -76t13 -77v-31q0 -174 -101 -275.5t-280 -101.5h-460q-20 0 -21 20zM373 236q0 -20 20 -21h225q61 0 104.5 43 t43.5 104v39q0 61 -42 103.5t-106 42.5h-225q-20 0 -20 -21v-290zM373 782q0 -20 20 -20h225q59 0 103.5 43t44.5 104v19q0 59 -44 103t-104 44h-225q-20 0 -20 -20v-273z" />
<glyph unicode="C" horiz-adv-x="991" d="M109 342v606q0 82 27.5 148.5t76.5 113.5t119.5 74t156.5 27h101q70 0 127 -16.5t104 -51.5q31 -23 55.5 -49.5t41 -51t25.5 -45t9 -28.5q0 -10 -12 -16l-178 -88q-4 -2 -10 -2q-10 0 -14.5 9t-14.5 25q-27 47 -57.5 73t-75.5 26h-101q-61 0 -104 -43t-43 -105v-606 q0 -61 43 -104t104 -43h101q45 0 74.5 24.5t56.5 73.5q18 39 31 39q6 0 10 -2l178 -88q12 -6 12 -17q0 -16 -22.5 -57t-75.5 -94q-92 -94 -264 -94h-101q-86 0 -156.5 25.5t-120.5 73.5t-76.5 114.5t-26.5 148.5z" />
<glyph unicode="D" horiz-adv-x="1107" d="M137 20v1250q0 20 21 20h460q176 0 278.5 -102.5t102.5 -278.5v-528q0 -176 -102 -278.5t-279 -102.5h-460q-20 0 -21 20zM373 236q0 -20 20 -21h225q61 0 104.5 43t43.5 104v566q0 59 -44 103t-104 44h-225q-20 0 -20 -20v-819z" />
<glyph unicode="E" horiz-adv-x="978" d="M137 20v1250q0 20 21 20h723q20 0 20 -20v-174q0 -20 -20 -21h-488q-20 0 -20 -20v-273q0 -20 20 -20h400q20 0 20 -21v-174q0 -20 -20 -20h-400q-20 0 -20 -21v-290q0 -20 20 -21h488q20 0 20 -20v-175q0 -20 -20 -20h-723q-20 0 -21 20z" />
<glyph unicode="F" horiz-adv-x="929" d="M137 20v1250q0 20 21 20h723q20 0 20 -20v-174q0 -20 -20 -21h-488q-20 0 -20 -20v-273q0 -20 20 -20h400q20 0 20 -21v-174q0 -20 -20 -20h-400q-20 0 -20 -21v-506q0 -20 -21 -20h-194q-20 0 -21 20z" />
<glyph unicode="G" horiz-adv-x="1079" d="M109 342v606q0 82 27.5 148.5t76.5 113.5t119.5 74t156.5 27h136q137 0 233 -68q31 -23 54.5 -48.5t40 -51t25.5 -46t9 -28.5q0 -10 -12 -16l-178 -88q-4 -2 -11 -2q-10 0 -14 9t-14 25q-27 47 -57.5 73t-75.5 26h-136q-61 0 -104 -43t-43 -105v-606q0 -61 43 -104 t104 -43h101q61 0 103 42t42 105v96q0 20 -20 21h-193q-20 0 -20 20v174q0 20 20 21h428q20 0 21 -21v-311q0 -82 -28 -148.5t-77 -114.5t-119.5 -73.5t-156.5 -25.5h-101q-86 0 -156.5 25.5t-120.5 73.5t-76.5 114.5t-26.5 148.5z" />
<glyph unicode="H" horiz-adv-x="1167" d="M137 20v1250q0 20 21 20h194q20 0 21 -20v-488q0 -20 20 -20h381q20 0 21 20v488q0 20 20 20h193q20 0 20 -20v-1250q0 -20 -20 -20h-193q-20 0 -20 20v506q0 20 -21 21h-381q-20 0 -20 -21v-506q0 -20 -21 -20h-194q-20 0 -21 20z" />
<glyph unicode="I" horiz-adv-x="509" d="M137 20v1250q0 20 21 20h194q20 0 21 -20v-1250q0 -20 -21 -20h-194q-20 0 -21 20z" />
<glyph unicode="J" horiz-adv-x="862" d="M6 223q0 14 12 19l183 86q8 4 10 4q10 0 14 -10.5t15 -28.5q25 -49 55.5 -73.5t77.5 -24.5q63 0 104 43t41 104v928q0 20 21 20h194q20 0 21 -20v-908q0 -74 -29 -143t-84 -129q-101 -110 -265 -110h-3q-39 0 -79 9t-93 27q-92 53 -143.5 112.5t-51.5 94.5z" />
<glyph unicode="K" horiz-adv-x="1067" d="M137 20v1250q0 20 21 20h194q20 0 21 -20v-455q0 -25 18 -24q8 0 19 12l364 479l17 8h235q23 0 23 -16q0 -8 -7 -17l-397 -491q-4 -8 -4 -10q0 -4 4 -13l440 -712q4 -8 5 -15q0 -16 -23 -16h-240l-16 10l-322 514q-10 12 -16 13q-12 0 -18 -9l-82 -108v-400 q0 -20 -21 -20h-194q-20 0 -21 20z" />
<glyph unicode="L" horiz-adv-x="929" d="M137 20v1250q0 20 21 20h194q20 0 21 -20v-1034q0 -20 20 -21h488q20 0 20 -20v-175q0 -20 -20 -20h-723q-20 0 -21 20z" />
<glyph unicode="M" horiz-adv-x="1304" d="M137 20v1250q0 20 21 20h176q8 -4 18 -12l299 -811l299 811q8 8 19 12h176q20 0 20 -20v-1250q0 -20 -20 -20h-189q-20 0 -20 20l18 799l-231 -631q-12 -12 -18 -12h-105q-12 0 -18 12l-232 631l19 -799q0 -20 -21 -20h-190q-20 0 -21 20z" />
<glyph unicode="N" horiz-adv-x="1126" d="M137 20v1250q0 20 21 20h172l18 -10l418 -831l-8 821q0 20 20 20h189q20 0 20 -20v-1250q0 -20 -20 -20h-170l-19 10l-420 824l11 -814q0 -20 -21 -20h-190q-20 0 -21 20z" />
<glyph unicode="O" horiz-adv-x="1079" d="M109 342v606q0 82 27.5 148.5t76.5 113.5t119.5 74t156.5 27h101q86 0 156.5 -27t119.5 -74t77 -113.5t28 -148.5v-606q0 -82 -28 -148.5t-77 -114.5t-119.5 -73.5t-156.5 -25.5h-101q-86 0 -156.5 25.5t-120.5 73.5t-76.5 114.5t-26.5 148.5zM342 342q0 -61 43 -104 t104 -43h101q61 0 103 42t42 105v606q0 63 -42 105.5t-103 42.5h-101q-61 0 -104 -43t-43 -105v-606z" />
<glyph unicode="P" horiz-adv-x="989" d="M137 20v1250q0 20 21 20h420q174 0 277 -103.5t103 -277.5q0 -80 -27.5 -146.5t-77.5 -114.5t-119.5 -74.5t-155.5 -26.5h-185q-20 0 -20 -21v-506q0 -20 -21 -20h-194q-20 0 -21 20zM373 782q0 -20 20 -20h185q61 0 104 43t43 104v19q0 59 -43 103t-104 44h-185 q-20 0 -20 -20v-273z" />
<glyph unicode="Q" horiz-adv-x="1079" d="M109 342v606q0 82 27.5 148.5t76.5 113.5t119.5 74t156.5 27h101q86 0 156.5 -27t119.5 -74t77 -113.5t28 -148.5v-606q0 -111 -51.5 -196t-128.5 -119q-31 -14 -57.5 -20.5t-46 -11.5t-30 -11.5t-10.5 -18.5v-121q0 -20 -20 -20h-174q-20 0 -21 20v121q0 12 -12 17.5 t-32.5 9.5t-47.5 11t-55 24q-176 98 -176 315zM342 342q0 -51 28.5 -88t53.5 -37q10 0 16 16l27 82q6 14 20 15h105q18 0 20 -15l27 -86q6 -16 16 -16q20 0 50 38t30 91v606q0 63 -42 105.5t-103 42.5h-101q-61 0 -104 -43t-43 -105v-606z" />
<glyph unicode="R" horiz-adv-x="1079" d="M137 20v1250q0 20 21 20h460q176 0 278.5 -102.5t102.5 -278.5v-20q0 -72 -29.5 -128t-60.5 -91q-29 -27 -56.5 -45.5t-27.5 -32.5v-2l195 -563q2 -4 2 -11q0 -16 -21 -16h-210q-10 0 -19 14l-180 521l-17 12h-182q-20 0 -20 -21v-506q0 -20 -21 -20h-194q-20 0 -21 20z M373 782q0 -20 20 -20h225q59 0 103.5 43t44.5 104v19q0 59 -44 103t-104 44h-225q-20 0 -20 -20v-273z" />
<glyph unicode="S" horiz-adv-x="901" d="M39 225q0 8 12 15l178 88q4 2 11 2q10 0 16 -15.5t23 -46.5q16 -33 51 -53t69 -20h82q59 0 103.5 43t44.5 104q0 76 -59.5 116t-159.5 87q-84 41 -147.5 81t-106.5 86t-64.5 103t-21.5 133q0 82 27.5 148.5t76.5 113.5t120 74t157 27h30q139 0 234 -68q31 -23 54.5 -48.5 t40.5 -51t26.5 -46t9.5 -28.5q0 -10 -12 -16l-179 -88q-4 -2 -10 -2q-8 0 -12 8t-15 22q-29 49 -59.5 76t-77.5 27h-30q-59 0 -103.5 -42t-44.5 -106q0 -37 17.5 -61.5t48 -45t74.5 -40t98 -43.5q82 -37 142 -79t100 -91t59.5 -109.5t19.5 -136.5q0 -82 -26.5 -148.5 t-76.5 -114.5t-121 -73.5t-157 -25.5h-82q-174 0 -266 96q-51 53 -72.5 93t-21.5 56z" />
<glyph unicode="T" horiz-adv-x="823" d="M31 1096v174q0 20 20 20h721q20 0 21 -20v-174q0 -20 -21 -21h-223q-20 0 -21 -20v-1035q0 -20 -20 -20h-193q-20 0 -20 20v1035q0 20 -21 20h-223q-20 0 -20 21z" />
<glyph unicode="U" horiz-adv-x="1079" d="M109 342v928q0 20 20 20h193q20 0 20 -20v-928q0 -61 43 -104t104 -43h101q61 0 103 42t42 105v928q0 20 21 20h194q20 0 21 -20v-928q0 -82 -28 -148.5t-77 -114.5t-119.5 -73.5t-156.5 -25.5h-101q-86 0 -156.5 25.5t-120.5 73.5t-76.5 114.5t-26.5 148.5z" />
<glyph unicode="V" horiz-adv-x="921" d="M-16 1272q0 18 22 18h205q18 0 20 -14l234 -832l223 832q2 14 21 14h206q23 0 23 -18q0 -2 -1 -4t-1 -4l-381 -1250q-2 -14 -20 -14h-148q-14 0 -20 14l-381 1250q0 2 -1 4t-1 4z" />
<glyph unicode="W" horiz-adv-x="1345" d="M4 1274q0 16 23 16h209q16 0 20 -16l150 -834l194 840q2 14 21 14h102q18 0 20 -14l195 -840l152 834q4 16 20 16h209q22 0 22 -15q0 -3 -1 -5t-1 -4l-270 -1250q-4 -16 -20 -16h-150q-18 0 -20 14l-207 811l-205 -811q-2 -14 -21 -14h-149q-16 0 -21 16l-270 1250 q0 2 -1 4t-1 4z" />
<glyph unicode="X" horiz-adv-x="937" d="M2 16q0 2 4 15l307 606v18l-307 605q-4 12 -4 14q0 16 23 16h227q6 0 18 -12l183 -377q6 -14 18 -14t18 14l177 377q2 6 18 12h231q23 0 23 -16q0 -4 -4 -12l-305 -609v-16l305 -608q4 -8 4 -13q0 -16 -23 -16h-233q-12 0 -18 12l-175 371q-6 14 -18 14t-18 -14 l-181 -371l-18 -12h-229q-23 0 -23 16z" />
<glyph unicode="Y" horiz-adv-x="921" d="M-20 1274q0 16 22 16h227l19 -12l194 -401q6 -14 19 -15q12 0 18 15l195 401l18 12h226q22 0 22 -15q0 -3 -4 -15l-358 -672v-568q0 -20 -21 -20h-195q-20 0 -20 20v568l-358 672q-4 12 -4 14z" />
<glyph unicode="Z" horiz-adv-x="901" d="M20 16q0 4 5 13l456 1018q4 8 4 12q0 16 -22 16h-373q-20 0 -20 21v174q0 20 20 20h727q23 0 23 -16q0 -4 -4 -12l-459 -1018q-4 -8 -4 -13q0 -16 22 -16h416q20 0 20 -20v-175q0 -20 -20 -20h-768q-23 0 -23 16z" />
<glyph unicode="[" horiz-adv-x="745" d="M168 -332v1796q0 20 20 21h369q20 0 21 -21v-174q0 -20 -21 -20h-135q-20 0 -21 -21v-1366q0 -20 21 -20h135q20 0 21 -21v-174q0 -20 -21 -20h-369q-20 0 -20 20z" />
<glyph unicode="\" horiz-adv-x="675" d="M-16 1274q0 16 22 16h129q14 -6 19 -12l534 -1249q4 -8 4 -13q0 -16 -22 -16h-129q-14 2 -19 12l-534 1250q-4 8 -4 12z" />
<glyph unicode="]" horiz-adv-x="745" d="M168 -158q0 20 20 21h134q20 0 20 20v1366q0 20 -20 21h-134q-20 0 -20 20v174q0 20 20 21h369q20 0 21 -21v-1796q0 -20 -21 -20h-369q-20 0 -20 20v174z" />
<glyph unicode="^" horiz-adv-x="1550" d="M59 655v174q0 20 21 21h47q20 0 20 20v58q0 80 30 150.5t83 121.5t127 81t162 30q59 0 105 -13.5t79 -30t53.5 -29.5t28.5 -13t28.5 13t51.5 29.5t72 30t90 13.5q20 0 28.5 -3t8.5 -18v-176q0 -18 -19.5 -21t-64.5 -14q-35 -8 -63.5 -46t-28.5 -85v-78q0 -20 20 -20h135 q20 0 21 -21v-174q0 -20 -21 -20h-135q-20 0 -20 -21v-594q0 -20 -21 -20h-195q-20 0 -20 20v594q0 20 -20 21h-259q-20 0 -20 -21v-594q0 -20 -21 -20h-194q-20 0 -21 20v594q0 20 -20 21h-47q-20 0 -21 20zM383 870q0 -20 20 -20h259q20 0 20 20v58q0 18 2 39.5t8 46.5 l-6 18q-68 63 -158 64q-61 0 -103 -42t-42 -106v-78zM1192 1174q0 57 40 97t97 40q55 0 95 -40t40 -97t-40 -97.5t-95 -40.5q-57 0 -97 40t-40 98zM1210 20v898q0 20 21 20h194q20 0 21 -20v-898q0 -20 -21 -20h-194q-20 0 -21 20z" />
<glyph unicode="_" horiz-adv-x="471" d="M-18 -313q0 20 20 20h467q20 0 20 -20v-107q0 -20 -20 -20h-467q-20 0 -20 20v107z" />
<glyph unicode="`" horiz-adv-x="1024" d="M145 1378q0 16 23 17h258l16 -11l197 -301q4 -4 4 -14q0 -16 -20 -16h-150l-14 6l-305 301q-8 8 -9 18z" />
<glyph unicode="a" horiz-adv-x="968" d="M111 721q0 12 22.5 55t75.5 94q90 88 260 88q86 0 156.5 -25.5t121 -72.5t78 -113.5t27.5 -148.5v-578q0 -20 -21 -20h-174q-12 0 -16 6t-6 13.5t-4 13.5t-8 6q-16 0 -52 -19.5t-92 -19.5h-78q-63 0 -116.5 20.5t-91 57.5t-59 87t-21.5 109v11q0 123 79.5 198.5 t208.5 75.5h197q20 0 20 19v4l-2 24q-6 63 -45 100t-102 37q-29 0 -59.5 -16t-53.5 -45t-32 -48.5t-21 -19.5q-4 0 -12 4l-168 89q-12 6 -12 14zM346 274q0 -27 15.5 -43t39.5 -16h78q96 0 137 115v8v9t2 15h-217q-23 0 -39 -17t-16 -40v-31z" />
<glyph unicode="b" horiz-adv-x="968" d="M119 20v1250q0 20 20 20h193q20 0 20 -20v-350q0 -23 15 -23q18 0 58 20.5t105 20.5q74 0 137.5 -27.5t111.5 -76t75 -114t27 -142.5v-216q0 -80 -28 -147.5t-77 -114.5t-116.5 -73.5t-147.5 -26.5q-70 0 -107.5 20.5t-56.5 20.5q-6 0 -9 -6t-5 -14.5t-6 -14.5t-15 -6 h-174q-20 0 -20 20zM352 362q0 -61 42 -104t106 -43q63 0 104 42t41 105v216q0 61 -41 103t-104 42q-66 0 -107 -42t-41 -103v-216z" />
<glyph unicode="c" horiz-adv-x="878" d="M88 342v254q0 82 27.5 148.5t78 113.5t121 73.5t156.5 26.5q72 0 129 -16t105 -51q31 -23 54 -49.5t39.5 -51t26 -45t9.5 -28.5q0 -10 -13 -17l-178 -88q-4 -2 -10 -2q-10 0 -14.5 9.5t-14.5 25.5q-27 49 -57.5 73.5t-75.5 24.5q-66 0 -106.5 -43t-40.5 -104v-254 q0 -61 41 -104t106 -43q45 0 74.5 24.5t56.5 73.5q18 39 31 39q6 0 10 -2l178 -88q12 -6 13 -17q0 -16 -24 -56t-77 -95q-90 -94 -262 -94q-86 0 -156.5 25.5t-121 73.5t-78 114.5t-27.5 148.5z" />
<glyph unicode="d" horiz-adv-x="968" d="M88 362v216q0 78 26.5 143t75 113.5t112 76t136.5 27.5q66 0 107 -20.5t57 -20.5q14 0 14 23v350q0 20 21 20h194q20 0 21 -20v-1250q0 -20 -21 -20h-174q-12 0 -16 6t-5 14.5t-3 14.5t-10 6q-18 0 -57.5 -20.5t-108.5 -20.5q-80 0 -147.5 26.5t-117 73.5t-77 115 t-27.5 147zM324 362q0 -63 41 -105t106 -42q63 0 104 42t41 105v216q0 61 -40.5 103t-104.5 42q-66 0 -106.5 -42t-40.5 -103v-216z" />
<glyph unicode="e" horiz-adv-x="940" d="M88 342v254q0 47 14.5 97t42.5 91q55 84 140.5 129t185.5 45q98 0 184 -45t140 -129q29 -41 43 -91t14 -97v-166q0 -20 -21 -20h-487q-20 0 -20 -21v-47q0 -61 41 -104t106 -43q45 0 74.5 24.5t56.5 73.5q18 39 31 39q6 0 10 -2l178 -88q12 -6 13 -17q0 -16 -24 -56 t-77 -95q-90 -94 -262 -94q-86 0 -156.5 25.5t-121 73.5t-78 114.5t-27.5 148.5zM328 625q0 -18 20 -19h244q20 0 20 21q0 20 -11 40.5t-31.5 38t-46 27.5t-52.5 10q-59 0 -101 -37.5t-42 -80.5z" />
<glyph unicode="f" horiz-adv-x="598" d="M59 655v174q0 20 21 21h47q20 0 20 20v58q0 72 29 141.5t84 128.5q104 113 268 113q147 0 148 -33q0 -2 -1 -4t-1 -4l-62 -172q-4 -14 -22 -15q-12 0 -27.5 6.5t-34.5 6.5q-63 0 -104 -43t-41 -105v-78q0 -20 20 -20h134q20 0 20 -21v-174q0 -20 -20 -20h-134 q-20 0 -20 -21v-594q0 -20 -21 -20h-194q-20 0 -21 20v594q0 20 -20 21h-47q-20 0 -21 20z" />
<glyph unicode="g" horiz-adv-x="940" d="M88 -147q0 59 22.5 95t53.5 72l25.5 25.5t9.5 20.5q0 10 -10.5 33.5t-10.5 64.5q0 45 14.5 73.5t14.5 41.5q0 8 -6 14q-18 25 -38 50.5t-37 56t-27.5 69.5t-10.5 90v19q0 76 28.5 142t78 114.5t117 76t145.5 27.5q68 0 108.5 -20.5t59.5 -20.5q6 0 8 6t3 14.5t5 14.5 t16 6h174q20 0 21 -20v-359q0 -80 -28.5 -147.5t-81 -114.5t-128 -73.5t-170.5 -26.5h-30q-14 -14 -15 -33q0 -16 17 -37h229q66 0 120 -20.5t93 -57.5t60.5 -87t21.5 -109v-39q0 -59 -21.5 -109.5t-60.5 -87.5t-93 -57.5t-120 -20.5h-262q-66 0 -120 20.5t-93 57.5 t-60.5 87t-21.5 110v39zM324 -147v-39q0 -27 16 -43.5t43 -16.5h262q25 0 42.5 17.5t17.5 42.5v39q0 27 -16.5 43t-43.5 16h-262q-27 0 -43 -16.5t-16 -42.5zM324 559q0 -61 41 -104t106 -43q61 0 103 43t42 104v19q0 61 -40.5 103t-104.5 42q-66 0 -106.5 -42t-40.5 -103 v-19z" />
<glyph unicode="h" horiz-adv-x="989" d="M119 20v1250q0 20 20 20h193q20 0 20 -20v-350q0 -23 15 -23q18 0 58 20.5t105 20.5q72 0 135.5 -26.5t111.5 -75t76 -115t28 -143.5v-558q0 -20 -21 -20h-194q-20 0 -21 20v558q0 61 -41 103t-104 42q-66 0 -107 -42t-41 -103v-558q0 -20 -20 -20h-193q-20 0 -20 20z " />
<glyph unicode="i" horiz-adv-x="471" d="M98 1174q0 57 40 97t98 40q55 0 96 -41t41 -96t-41 -96.5t-96 -41.5q-57 0 -97.5 40t-40.5 98zM119 20v898q0 20 20 20h193q20 0 20 -20v-898q0 -20 -20 -20h-193q-20 0 -20 20z" />
<glyph unicode="j" horiz-adv-x="471" d="M-57 -287q0 18 17 20.5t58 12.5q45 10 73 47t28 86v1039q0 20 20 20h193q20 0 20 -20v-1020q0 -92 -40 -171t-111 -126q-123 -82 -236 -82q-23 0 -22 20v174zM98 1174q0 57 40 97t98 40q55 0 96 -41t41 -96t-41 -96.5t-96 -41.5q-57 0 -97.5 40t-40.5 98z" />
<glyph unicode="k" horiz-adv-x="919" d="M119 20v1250q0 20 20 20h193q20 0 20 -20v-561q0 -23 19 -23q8 0 16 8l217 238l14 6h244q23 0 23 -16q0 -10 -8 -19l-283 -289q-8 -12 -8 -14t4 -10l346 -559q4 -8 4 -15q0 -16 -22 -16h-240l-19 10l-235 387q-6 12 -16 13q-8 0 -17 -9l-33 -32l-6 -15v-334 q0 -20 -20 -20h-193q-20 0 -20 20z" />
<glyph unicode="l" horiz-adv-x="471" d="M119 20v1250q0 20 20 20h193q20 0 20 -20v-1250q0 -20 -20 -20h-193q-20 0 -20 20z" />
<glyph unicode="m" horiz-adv-x="1447" d="M119 20v898q0 20 20 20h174q10 0 14.5 -7t6.5 -15.5t4 -15.5t10 -7q10 0 25.5 7t36 15.5t46 15.5t58.5 7q66 0 111 -24.5t86 -49.5q8 -6 14 -6q4 0 14 6q53 41 108.5 57.5t121.5 16.5q80 0 146.5 -26.5t114.5 -75t74.5 -114t26.5 -144.5v-558q0 -20 -20 -20h-195 q-20 0 -20 20v558q0 59 -38 102t-89 43q-25 0 -47.5 -12.5t-40 -32t-28.5 -46t-11 -54.5v-558q0 -20 -21 -20h-194q-20 0 -21 20v558q0 59 -38 102t-89 43q-47 0 -87 -43t-40 -102v-558q0 -20 -20 -20h-193q-20 0 -20 20z" />
<glyph unicode="n" horiz-adv-x="999" d="M119 20v898q0 20 20 20h174q12 0 16.5 -6t6.5 -14.5t4 -14.5t8 -6q8 0 22.5 6t35 14.5t48 14.5t62.5 6q78 0 144.5 -26.5t115.5 -73.5t77 -114t28 -146v-558q0 -20 -21 -20h-194q-20 0 -21 20v558q0 61 -41 103t-104 42q-66 0 -107 -42t-41 -103v-558q0 -20 -20 -20h-193 q-20 0 -20 20z" />
<glyph unicode="o" horiz-adv-x="940" d="M88 342v254q0 82 27.5 148.5t78 113.5t121 73.5t156.5 26.5t156.5 -26.5t120 -73.5t77 -113.5t27.5 -148.5v-254q0 -82 -27.5 -148.5t-77 -114.5t-120 -73.5t-156.5 -25.5t-156.5 25.5t-121 73.5t-78 114.5t-27.5 148.5zM324 342q0 -61 41 -104t106 -43q61 0 103 43 t42 104v254q0 61 -42 104t-103 43q-66 0 -106.5 -43t-40.5 -104v-254z" />
<glyph unicode="p" horiz-adv-x="968" d="M119 -440v1358q0 20 20 20h174q10 0 14.5 -6t6.5 -14.5t5 -14.5t9 -6q16 0 57 20.5t111 20.5q78 0 144.5 -25.5t115.5 -73.5t77 -115t28 -146v-216q0 -78 -27 -144t-75 -114.5t-114.5 -76t-146.5 -27.5q-55 0 -93 20.5t-58 20.5q-14 0 -15 -23v-458q0 -20 -20 -21h-193 q-20 0 -20 21zM352 362q0 -61 42 -104t106 -43q63 0 104 42t41 105v216q0 61 -41 103t-104 42q-66 0 -107 -42t-41 -103v-216z" />
<glyph unicode="q" horiz-adv-x="968" d="M88 362v216q0 80 27.5 146.5t77 114.5t117 73.5t145.5 25.5q70 0 110.5 -20.5t59.5 -20.5q6 0 8 6t3 14.5t5 14.5t16 6h174q20 0 21 -20v-1358q0 -20 -21 -21h-194q-20 0 -21 21v458q0 23 -14 23q-20 0 -57 -20.5t-94 -20.5q-162 0 -256 100q-51 53 -79 122t-28 140z M324 362q0 -63 41 -105t106 -42q63 0 104 42t41 105v216q0 61 -40.5 103t-104.5 42q-66 0 -106.5 -42t-40.5 -103v-216z" />
<glyph unicode="r" horiz-adv-x="638" d="M119 20v898q0 20 20 20h174q20 0 21 -18v-29q0 -18 18 -21l13 7q80 61 155 61q53 0 84 -10t31 -27v-199q0 -23 -14 -22q-20 0 -52 20.5t-75 20.5q-59 0 -100.5 -42t-41.5 -101v-558q0 -20 -20 -20h-193q-20 0 -20 20z" />
<glyph unicode="s" horiz-adv-x="940" d="M82 221q0 8 12 15l168 81q4 2 10 2t17 -14q31 -51 59.5 -84t87.5 -33h60q55 0 86.5 25t31.5 63q0 31 -20.5 45.5t-57 22.5t-89 15.5t-115.5 23.5q-123 31 -181.5 92.5t-58.5 165.5q0 70 25.5 128t70.5 100t108.5 65.5t139.5 23.5h60q141 0 235 -69q29 -20 51.5 -46 t38 -49.5t23.5 -44t8 -28.5q0 -10 -12 -16l-168 -82q-4 -2 -10 -2q-8 0 -17 12q-16 25 -29.5 45t-30 36.5t-38 26t-51.5 9.5h-60q-112 0 -112 -77q0 -32 20.5 -47.5t57 -23.5t88 -16t114.5 -25q125 -35 184.5 -94t59.5 -162q0 -72 -24.5 -132t-70.5 -103t-112 -66.5 t-145 -23.5h-60q-172 0 -266 100q-47 49 -67.5 88t-20.5 53z" />
<glyph unicode="t" horiz-adv-x="657" d="M10 743l4 109l242 256l14 6h101q20 0 20 -20v-136q0 -20 21 -20h135q20 0 20 -20v-175q0 -20 -20 -20h-135q-20 0 -21 -21v-360q0 -47 29 -85t65 -46q43 -10 62.5 -13t19.5 -22v-176q0 -14 -10 -17t-33 -3q-66 0 -141.5 30.5t-126.5 79.5q-98 94 -98 252v360q0 20 -21 21 h-106q-20 0 -21 20z" />
<glyph unicode="u" horiz-adv-x="978" d="M98 362v556q0 20 21 20h194q20 0 21 -20v-556q0 -63 41 -105t104 -42t105.5 43t42.5 104v556q0 20 20 20h193q20 0 20 -20v-898q0 -20 -20 -20h-174q-10 0 -14.5 6t-6.5 14.5t-5 14.5t-9 6q-18 0 -57 -20.5t-109 -20.5q-80 0 -147.5 26.5t-115.5 73.5t-76 115t-28 147z " />
<glyph unicode="v" horiz-adv-x="880" d="M-18 922q0 16 22 16h207q8 -4 18 -12q72 -190 126.5 -330.5t88.5 -233.5q53 141 89 249t62 180.5t42 109.5t33 37h209q22 0 22 -15q0 -5 -4 -14l-365 -897q-6 -12 -18 -12h-147q-10 2 -19 12l-362 897q-4 8 -4 13z" />
<glyph unicode="w" horiz-adv-x="1226" d="M4 920q0 18 23 18h204q18 0 21 -14l129 -566l123 566q2 14 20 14h181q18 0 20 -14l127 -566l125 566q2 14 20 14h205q23 0 23 -18q0 -2 -1 -4.5t-1 -4.5l-275 -897q-6 -14 -20 -14h-146q-18 0 -20 14l-146 598l-149 -598q-2 -14 -21 -14h-147q-18 0 -20 14l-273 897 q0 4 -1 5.5t-1 3.5z" />
<glyph unicode="x" horiz-adv-x="837" d="M-20 922q0 16 20 16h229l17 -10l155 -250q8 -12 17 -12q8 0 14 12l158 250l16 10h232q22 0 22 -15q0 -9 -6 -18l-281 -426v-18l281 -430q4 -6 4 -15q0 -16 -20 -16h-230l-18 10l-154 248q-10 14 -18 14t-19 -14l-153 -248l-19 -10h-196q-23 0 -23 16q0 2 4 15l248 426 q2 8 2 18v6l-278 426q-4 6 -4 15z" />
<glyph unicode="y" horiz-adv-x="978" d="M98 362v556q0 20 21 20h194q20 0 21 -20v-556q0 -63 41 -105t104 -42t105.5 43t42.5 104v556q0 20 20 20h193q20 0 20 -20v-1018q0 -178 -101.5 -279.5t-279.5 -101.5q-141 0 -233 65q-31 20 -54.5 48t-40 52.5t-24.5 45t-8 30.5q0 8 12 15l176 88q8 4 10 4 q10 0 15.5 -10.5t13.5 -26.5q27 -47 56.5 -71.5t76.5 -24.5q61 0 104.5 44t43.5 103v127q0 20 -15 21q-16 0 -48 -14.5t-85 -14.5q-86 0 -156.5 25.5t-120.5 73.5t-77 115t-27 148z" />
<glyph unicode="z" horiz-adv-x="880" d="M14 16q0 6 4 15l396 659q4 8 4 15q0 16 -23 16h-315q-20 0 -21 20v174q0 20 21 21h727q22 0 22 -15q0 -7 -4 -16l-397 -659q-4 -4 -4 -15q0 -16 22 -16h353q20 0 20 -20v-175q0 -20 -20 -20h-762q-23 0 -23 16z" />
<glyph unicode="{" horiz-adv-x="774" d="M20 477v178q0 18 18.5 20.5t59.5 12.5t70 47t29 86v283q0 168 98 266q25 25 57.5 45.5t68.5 35.5t72.5 24.5t69.5 9.5q23 0 33 -3t10 -18v-176q0 -18 -19.5 -21t-62.5 -14q-37 -8 -65.5 -45t-28.5 -84v-323q0 -35 -11 -72t-32 -63q-35 -47 -54.5 -71t-19.5 -30 t18.5 -28.5t47.5 -63.5q25 -35 38 -76t13 -78v-309q0 -47 28.5 -85t65.5 -46q43 -10 62.5 -13t19.5 -22v-176q0 -14 -10 -17t-33 -3q-33 0 -69.5 8t-72.5 23.5t-69 37t-57 45.5q-98 98 -98 267v284q0 47 -29 84t-70 47t-59.5 12.5t-18.5 20.5z" />
<glyph unicode="|" horiz-adv-x="1568" d="M59 655v174q0 20 21 21h47q20 0 20 20v58q0 147 113 270q102 113 285 113q88 0 149.5 -25.5t120.5 -64.5q8 -6 14 -7q4 0 11 7q100 70 223 69h369q20 0 20 -20v-1250q0 -20 -20 -20h-195q-20 0 -20 20v1035q0 20 -21 20h-133q-61 0 -103 -42t-42 -105v-58q0 -20 20 -20 h135q20 0 21 -21v-174q0 -20 -21 -20h-135q-20 0 -20 -21v-594q0 -20 -21 -20h-195q-20 0 -20 20v594q0 20 -20 21h-259q-20 0 -20 -21v-594q0 -20 -21 -20h-194q-20 0 -21 20v594q0 20 -20 21h-47q-20 0 -21 20zM383 870q0 -20 20 -20h259q20 0 20 20v39q0 51 12 99l-4 18 q-31 35 -73 52.5t-89 17.5q-61 0 -103 -42t-42 -106v-78z" />
<glyph unicode="}" horiz-adv-x="774" d="M168 -156q0 18 17.5 20.5t58.5 12.5t69.5 47t28.5 86v309q0 37 11.5 74t29.5 64q35 49 56.5 75.5t21.5 32.5q0 8 -10.5 18.5t-22.5 26.5q-35 47 -60.5 90t-25.5 101v323q0 49 -28.5 85t-69.5 46t-58.5 12.5t-17.5 20.5v176q0 14 9 17.5t32 3.5q74 0 141.5 -26.5 t117.5 -77t80 -121t30 -156.5v-283q0 -47 28.5 -85t63.5 -46q45 -10 64.5 -13t19.5 -22v-178q0 -18 -19.5 -21t-64.5 -14q-37 -8 -64.5 -45t-27.5 -84v-284q0 -168 -99 -267q-49 -51 -126 -82.5t-144 -31.5q-23 0 -32 3t-9 17v176z" />
<glyph unicode="~" horiz-adv-x="1132" d="M59 655v174q0 20 21 21h47q20 0 20 20v58q0 80 30 150.5t83 121.5t127 81t162 30q59 0 105 -13.5t79 -30t53.5 -29.5t28.5 -13q6 0 24.5 13t49.5 29.5t75 30t99 13.5q78 0 112.5 -7.5t34.5 -25.5q0 -2 -1 -4t-1 -4l-61 -172q-4 -14 -23 -15q-12 0 -27.5 6.5t-33.5 6.5 q-63 0 -104 -43t-41 -105v-78q0 -20 20 -20h135q20 0 21 -21v-174q0 -20 -21 -20h-135q-20 0 -20 -21v-594q0 -20 -21 -20h-195q-20 0 -20 20v594q0 20 -20 21h-259q-20 0 -20 -21v-594q0 -20 -21 -20h-194q-20 0 -21 20v594q0 20 -20 21h-47q-20 0 -21 20zM383 870 q0 -20 20 -20h259q20 0 20 20v58q0 18 2 39.5t8 46.5l-6 18q-68 63 -158 64q-61 0 -103 -42t-42 -106v-78z" />
<glyph unicode="&#xa1;" horiz-adv-x="569" d="M119 821q0 57 41 97t96 40t95 -40t40 -97t-40 -97t-95 -40q-57 0 -97 40t-40 97zM137 209l45 358q2 18 21 19h102q16 0 21 -19l47 -358v-541q0 -20 -21 -20h-194q-20 0 -21 20v541z" />
<glyph unicode="&#xa2;" d="M119 518v254q0 113 50 195t148 129q33 14 63 20t52.5 10t35.5 9.5t13 17.5v117q0 20 21 20h106q20 0 21 -20v-115q0 -12 8 -17t25.5 -8.5t44 -6.5t61.5 -13q61 -18 115 -72q98 -102 98 -143q0 -10 -12 -16l-178 -88q-4 -2 -11 -3q-8 0 -16 13q-33 51 -56.5 84t-62.5 33 q-16 0 -16 -23v-500q0 -20 12 -20q20 0 42 12t32 29q29 43 41 66.5t24 23.5q6 0 11 -2l178 -88q12 -6 12 -19q0 -12 -12.5 -36.5t-35 -53t-52 -57.5t-66.5 -49t-70.5 -27.5t-59.5 -10.5t-41 -8t-15 -20v-115q0 -20 -21 -20h-106q-20 0 -21 20v117q0 14 -13 18.5t-35.5 7.5 t-52.5 8t-63 22q-199 100 -198 325zM354 518q0 -59 34 -101t79 -42q14 0 14 22v496q0 23 -20 22q-41 0 -74 -42t-33 -101v-254z" />
<glyph unicode="&#xa3;" d="M-8 20v175q0 20 20 20h115q129 35 129 147v164q0 20 -20 21h-48q-20 0 -20 20v174q0 20 20 21h48q20 0 20 20v146q0 72 28.5 141.5t84.5 128.5q102 113 282 113q125 0 217 -68q31 -23 55.5 -49.5t41 -51t25.5 -45t9 -28.5q0 -10 -12 -16l-178 -88q-4 -2 -10 -2 q-10 0 -14.5 9t-14.5 25q-27 49 -57.5 74t-75.5 25q-63 0 -105.5 -44t-42.5 -104v-166q0 -20 21 -20h135q20 0 21 -21v-174q0 -20 -21 -20h-135q-20 0 -21 -21v-184q0 -39 -11 -66.5t-11 -46.5q0 -14 20 -14h422q20 0 21 -20v-175q0 -20 -21 -20h-897q-20 0 -20 20z" />
<glyph unicode="&#xa4;" horiz-adv-x="1241" d="M68 438l202 205q-76 106 -75 242q0 135 75 241l-202 205l104 107l205 -203q51 37 110.5 57.5t133.5 20.5q139 0 247 -78l203 203l105 -107l-203 -205q76 -106 76 -241q0 -133 -76 -242l203 -205l-105 -104l-203 203q-51 -37 -111.5 -57.5t-133.5 -20.5q-141 0 -246 78 l-205 -203zM346 885q0 -57 21.5 -107.5t59.5 -87.5t88 -58.5t108 -21.5q57 0 107 21.5t88 58.5t59.5 87t21.5 108q0 55 -21.5 105t-59.5 88t-88 60.5t-107 22.5t-107.5 -22.5t-88.5 -60.5t-59.5 -88t-21.5 -105z" />
<glyph unicode="&#xa5;" d="M39 1276q0 14 22 14h226l18 -12l195 -401q6 -14 18 -15q12 0 19 15l194 401l19 12h227q23 0 22 -16q0 -2 -4 -14l-280 -525q-4 -6 -4 -16q0 -14 22 -14h215q20 0 21 -21v-156q0 -20 -21 -20h-291q-20 0 -20 -21v-94q0 -20 20 -20h291q20 0 21 -21v-155q0 -20 -21 -21 h-291q-20 0 -20 -20v-136q0 -20 -21 -20h-194q-20 0 -21 20v136q0 20 -20 20h-291q-20 0 -20 21v155q0 20 20 21h291q20 0 20 20v94q0 20 -20 21h-291q-20 0 -20 20v156q0 20 20 21h215q23 0 23 16q0 2 -4 14l-281 525q-4 6 -4 16z" />
<glyph unicode="&#xa6;" horiz-adv-x="1024" d="M410 -350v758h206v-758h-206zM410 674v758h206v-758h-206z" />
<glyph unicode="&#xa7;" d="M109 -240q0 8 12 15l176 88q8 4 10 4q10 0 15.5 -10.5t15.5 -28.5q25 -47 55.5 -70.5t75.5 -23.5h82q59 0 102 42t43 105q0 47 -20.5 81t-57 61.5t-88 52t-114.5 55.5q-72 35 -124 70t-86 76.5t-51.5 93t-17.5 116.5v41q0 109 56 201l-3 21q-53 86 -53 190 q0 172 103.5 271.5t277.5 99.5h33q70 0 127 -16.5t104 -51.5q31 -23 55.5 -49.5t41 -51t25.5 -45t9 -28.5q0 -10 -12 -16l-178 -88q-4 -2 -10 -2q-10 0 -14.5 9t-14.5 25q-27 47 -57.5 73t-75.5 26h-33q-61 0 -103 -41t-42 -107q0 -43 20.5 -73.5t57 -55t89 -47t113.5 -53.5 q143 -70 211 -156t68 -221v-41q0 -98 -55 -192v-21q29 -51 42 -101t13 -106q0 -82 -27.5 -148.5t-77 -114.5t-120 -73.5t-156.5 -25.5h-82q-172 0 -266 94q-51 51 -72.5 91t-21.5 56zM373 487q0 -29 12 -55t33 -43q41 -33 83 -55.5t77.5 -37.5t63.5 -22.5t40 -7.5 q14 0 14 21v55q0 49 -22.5 82t-69.5 63q-18 12 -94 48q-106 47 -119 47q-18 0 -18 -54v-41z" />
<glyph unicode="&#xa8;" horiz-adv-x="1024" d="M211 1208q0 53 37 90t90 37t90 -37t37 -90t-37 -90t-90 -37q-55 0 -91 36t-36 91zM557 1208q0 53 37 90t90 37t90 -37t37 -90t-37 -90t-90 -37q-55 0 -91 36t-36 91z" />
<glyph unicode="&#xa9;" horiz-adv-x="1447" d="M168 362v566q0 82 26.5 148.5t77 113.5t121 73.5t156.5 26.5h352q86 0 156.5 -26.5t120 -73.5t77 -113.5t27.5 -148.5v-566q0 -82 -27.5 -148.5t-77 -114.5t-120 -73.5t-156.5 -25.5h-352q-86 0 -156.5 25.5t-121 73.5t-77 115t-26.5 148zM313 362q0 -96 62.5 -155.5 t173.5 -59.5h352q109 0 171.5 59.5t62.5 155.5v566q0 96 -63.5 155.5t-170.5 59.5h-352q-111 0 -173.5 -59.5t-62.5 -155.5v-566zM444 561v193q0 117 75 188.5t204 71.5q61 0 109.5 -19.5t82 -46t52 -55.5t18.5 -45q0 -8 -14 -14l-107 -54q-4 -2 -8 -2q-6 0 -16 10 q-29 33 -52.5 56.5t-64.5 23.5q-53 0 -85 -32.5t-32 -81.5v-193q0 -49 32 -82t85 -33q41 0 64.5 25t52.5 57q10 10 16 11q4 0 8 -2l107 -54q12 -6 12 -16q0 -18 -17.5 -48t-51 -56.5t-82 -46t-109.5 -19.5q-127 0 -203 72.5t-76 191.5z" />
<glyph unicode="&#xaa;" horiz-adv-x="677" d="M68 821v6q0 90 58 146.5t155 56.5h137l4 6v17q0 37 -25.5 61.5t-68.5 24.5q-53 0 -97 -76q-8 -14 -18 -14q-6 0 -14 4l-119 61q-12 8 -12 21q0 20 17 51t51 58.5t82 47t110 19.5q127 0 202.5 -73t75.5 -191v-404q0 -25 -24 -25h-121q-25 0 -25 23l-8 4q-45 -27 -92 -27 h-55q-94 0 -153.5 57.5t-59.5 145.5zM252 821q0 -14 9 -23.5t20 -9.5h55q61 0 86 74v10h-141q-10 0 -19.5 -9t-9.5 -21v-21z" />
<glyph unicode="&#xab;" horiz-adv-x="1175" d="M98 502v145l8 17l443 315q8 6 16 6q16 0 17 -22v-183l-9 -16l-241 -172q-10 -8 -10 -17q0 -8 10 -16l241 -174l9 -16v-181q0 -23 -17 -22q-8 0 -16 6l-443 313zM569 502v145l9 17l444 315q8 6 16 6q16 0 17 -22v-183l-8 -16l-242 -172q-10 -8 -10 -17q0 -8 10 -16 l242 -174l8 -16v-181q0 -23 -15 -22q-10 0 -18 6l-444 313z" />
<glyph unicode="&#xac;" horiz-adv-x="1705" d="M254 668v196h1198v-502h-199v306h-999z" />
<glyph unicode="&#xad;" horiz-adv-x="569" d="M80 373v192q0 20 20 21h369q20 0 20 -21v-192q0 -20 -20 -21h-369q-20 0 -20 21z" />
<glyph unicode="&#xae;" horiz-adv-x="942" d="M98 901v41q0 78 27 142.5t75 110.5t115.5 70.5t151.5 24.5h8q84 0 151.5 -24.5t116 -70.5t75 -110.5t26.5 -142.5v-41q0 -78 -26.5 -142.5t-75 -110.5t-116 -70.5t-151.5 -24.5h-8q-84 0 -151.5 24.5t-115.5 70.5t-75 110.5t-27 142.5zM160 901q0 -129 83 -208t224 -79h8 q141 0 224 79t83 208v41q0 129 -83 208t-224 79h-8q-141 0 -224 -79t-83 -208v-41zM344 758v344q0 20 21 20h129q59 0 94 -34.5t35 -94.5v-8q0 -23 -9.5 -39t-21.5 -28.5t-21.5 -23.5t-9.5 -20q0 -4 2 -6l51 -102q4 -8 4 -12q0 -16 -22 -17h-33q-14 2 -18 13l-47 108 q-4 6 -19 12h-51q-20 0 -20 -20v-92q0 -20 -21 -21h-22q-20 0 -21 21zM408 948q0 -20 20 -20h66q29 0 46 18.5t17 46.5v6q0 29 -17.5 47.5t-45.5 18.5h-66q-20 0 -20 -21v-96z" />
<glyph unicode="&#xaf;" horiz-adv-x="1024" d="M262 1139v174q0 20 21 20h467q20 0 20 -20v-174q0 -20 -20 -21h-467q-20 0 -21 21z" />
<glyph unicode="&#xb0;" horiz-adv-x="471" d="M31 1055v59q0 88 56 142.5t149 54.5q92 0 148 -54.5t56 -142.5v-59q0 -86 -55 -140.5t-149 -54.5t-149.5 53.5t-55.5 141.5zM176 1055q0 -23 17.5 -40.5t42.5 -17.5t42 17.5t17 40.5v59q0 23 -17.5 41.5t-41.5 18.5q-25 0 -42.5 -18.5t-17.5 -41.5v-59z" />
<glyph unicode="&#xb1;" horiz-adv-x="1705" d="M254 -2v199h1198v-199h-1198zM254 698v199h498v326h202v-326h498v-199h-498v-325h-202v325h-498z" />
<glyph unicode="&#xb2;" horiz-adv-x="686" d="M66 1157q0 6 13 30.5t46 55.5q70 59 180 60h47q117 0 184.5 -59.5t67.5 -158.5q0 -47 -14.5 -82.5t-42 -66.5t-68.5 -57.5t-92 -55.5q-66 -39 -103.5 -69.5t-37.5 -83.5v-13q0 -12 14 -12h322q12 0 12 -12v-105q0 -12 -12 -12h-478q-14 0 -14 12v142q0 98 59.5 162.5 t176.5 125.5q59 33 92 59.5t33 67.5q0 37 -29 63t-70 26h-47q-49 0 -76 -39q-14 -18 -19 -30.5t-13 -12.5l-9 4l-114 53q-8 2 -8 8z" />
<glyph unicode="&#xb3;" horiz-adv-x="686" d="M66 651q0 4 8 8l119 54q2 2 6 2q8 0 12 -9.5t14 -27.5q10 -23 33 -34t47 -11h37q41 0 69.5 25.5t28.5 62.5v43q0 37 -28.5 61.5t-69.5 24.5h-121q-14 0 -14 12v105q0 12 14 12h121q41 0 69.5 25.5t28.5 62.5v18q0 37 -28.5 63t-69.5 26h-37q-49 0 -76 -39 q-14 -18 -19 -30.5t-13 -12.5l-9 4l-114 53q-8 2 -8 8t13 30.5t46 55.5q70 59 180 60h37q117 0 184.5 -62.5t67.5 -167.5v-18q0 -45 -31 -86q-23 -25 -35 -38t-12 -18q0 -4 12.5 -16t30.5 -35q16 -23 25.5 -48.5t9.5 -47.5v-35q0 -104 -67.5 -165.5t-184.5 -61.5h-37 q-115 0 -178 57q-33 31 -47 55.5t-14 34.5z" />
<glyph unicode="&#xb4;" horiz-adv-x="1024" d="M389 1067q0 6 6 16l199 301l16 9h258q23 0 23 -19q0 -8 -8 -16l-305 -301l-15 -6h-151q-23 0 -23 16z" />
<glyph unicode="&#xb6;" horiz-adv-x="1304" d="M109 537v372q0 176 103 278.5t277 102.5h658q20 0 20 -20v-1710q0 -20 -20 -21h-195q-20 0 -20 21v1495q0 20 -21 20h-137q-20 0 -20 -20v-1495q0 -20 -21 -21h-194q-20 0 -21 21v596q0 20 -20 20h-9q-86 0 -155.5 26.5t-119.5 75t-77.5 114t-27.5 145.5z" />
<glyph unicode="&#xb7;" horiz-adv-x="471" d="M98 647q0 57 40 97t98 40q55 0 96 -41t41 -96t-41 -96t-96 -41q-57 0 -97.5 40t-40.5 97z" />
<glyph unicode="&#xb8;" horiz-adv-x="1024" d="M297 -305q0 20 20 20h121q16 0 26.5 11.5t10.5 23.5v17q0 14 -11 25t-26 11h-82q-23 0 -22 17q0 4 4 12l82 180h203l-37 -73q-4 -8 -4 -13q0 -6 6 -12q78 -68 78 -147v-17q0 -92 -62.5 -151.5t-165.5 -59.5h-121q-20 0 -20 21v135z" />
<glyph unicode="&#xb9;" horiz-adv-x="686" d="M117 1071q0 6 4 8l227 207l8 4h74q12 0 12 -12v-621q0 -12 15 -12h127q14 0 14 -12v-105q0 -12 -14 -12h-437q-14 0 -14 12v105q0 12 14 12h127q14 0 15 12v361q0 12 -13 12q-8 0 -12 -4l-39 -39q-8 -4 -10 -4t-10 4l-84 76q-4 4 -4 8z" />
<glyph unicode="&#xba;" horiz-adv-x="657" d="M51 868v179q0 119 76 191.5t203 72.5q125 0 200.5 -74t75.5 -190v-179q0 -119 -74.5 -191.5t-201.5 -72.5q-129 0 -204 72t-75 192zM238 868q0 -41 25.5 -67.5t66.5 -26.5q39 0 65.5 27.5t26.5 66.5v179q0 39 -26.5 65.5t-65.5 26.5q-41 0 -66.5 -27t-25.5 -65v-179z" />
<glyph unicode="&#xbb;" horiz-adv-x="1175" d="M121 188v181l8 16l240 174q10 6 10 16t-10 17l-240 172l-8 16v183q0 23 16 22q6 0 17 -6l442 -315l8 -17v-145l-8 -17l-442 -313q-10 -6 -17 -6q-16 0 -16 22zM594 188v181l8 16l242 174q10 6 10 16t-10 17l-242 172l-8 16v183q0 23 16 22q6 0 17 -6l442 -315l8 -17v-145 l-8 -17l-442 -313q-10 -6 -17 -6q-16 0 -16 22z" />
<glyph unicode="&#xbc;" horiz-adv-x="1957" d="M111 1085q0 2 6 9l215 192l8 4h70q14 0 14 -12v-580q0 -10 12 -10h121q12 0 12 -12v-96q0 -12 -12 -13h-416q-14 0 -14 13v96q0 12 14 12h121q12 0 12 10v336q0 14 -10 15q-6 0 -12 -7l-37 -34q-4 -4 -10 -4q-4 0 -8 4l-80 69q-6 6 -6 8zM633 16q0 4 4 13l534 1249 q2 6 19 12h110q23 0 23 -16q0 -4 -4 -12l-535 -1250q-4 -10 -18 -12h-111q-23 0 -22 16zM1335 170v96l338 453l10 4h119q12 0 13 -12v-420q0 -12 12 -12h84q14 0 14 -13v-96q0 -12 -14 -12h-84q-12 0 -12 -11v-135q0 -12 -13 -12h-123q-12 0 -12 12v135q0 10 -14 11h-303 q-14 0 -15 12zM1507 289q0 -10 13 -10h133q14 0 14 12v176q0 14 -12 14q-6 0 -13 -6l-133 -178q-2 -4 -2 -8z" />
<glyph unicode="&#xbd;" horiz-adv-x="1957" d="M111 1085q0 2 6 9l215 192l8 4h70q14 0 14 -12v-580q0 -10 12 -10h121q12 0 12 -12v-96q0 -12 -12 -13h-416q-14 0 -14 13v96q0 12 14 12h121q12 0 12 10v336q0 14 -10 15q-6 0 -12 -7l-37 -34q-4 -4 -10 -4q-4 0 -8 4l-80 69q-6 6 -6 8zM633 16q0 4 4 13l534 1249 q2 6 19 12h110q23 0 23 -16q0 -4 -4 -12l-535 -1250q-4 -10 -18 -12h-111q-23 0 -22 16zM1364 598q0 6 13.5 29.5t45.5 52.5q63 53 170 53h45q111 0 176.5 -55t65.5 -148q0 -43 -14.5 -76.5t-41 -61t-64.5 -53.5t-87 -52q-63 -35 -99 -64.5t-36 -79.5v-12q0 -10 12 -10h308 q12 0 12 -12v-97q0 -12 -12 -12h-455q-14 0 -14 12v131q0 92 57 151.5t168 119.5q57 29 88 54.5t31 61.5q0 35 -28 59.5t-67 24.5h-45q-43 0 -73 -36q-12 -16 -17.5 -27.5t-11.5 -11.5q-4 0 -8 2l-111 49q-8 6 -8 8z" />
<glyph unicode="&#xbe;" horiz-adv-x="1957" d="M61 1165q0 6 13.5 30t46.5 52q63 53 170 53h35q111 0 176 -57t65 -156v-16q0 -18 -7 -40.5t-23 -39.5q-43 -49 -43 -53t11 -15.5t30 -33.5q16 -20 24 -44t8 -44v-33q0 -98 -64.5 -155.5t-176.5 -57.5h-35q-109 0 -170 55q-31 29 -44.5 51.5t-13.5 32.5q0 2 9 8l110 50h8 q6 0 10.5 -8.5t14.5 -26.5q25 -41 76 -41h35q39 0 66.5 24.5t27.5 59.5v39q0 35 -26.5 57.5t-67.5 22.5h-115q-14 0 -14 12v98q0 10 14 10h115q39 0 66.5 24t27.5 58v17q0 35 -27.5 59.5t-66.5 24.5h-35q-43 0 -74 -37q-12 -16 -17 -27.5t-12 -11.5q-4 0 -8 2l-110 49 q-8 6 -9 8zM633 16q0 4 4 13l534 1249q2 6 19 12h110q23 0 23 -16q0 -4 -4 -12l-535 -1250q-4 -10 -18 -12h-111q-23 0 -22 16zM1335 170v96l338 453l10 4h119q12 0 13 -12v-420q0 -12 12 -12h84q14 0 14 -13v-96q0 -12 -14 -12h-84q-12 0 -12 -11v-135q0 -12 -13 -12h-123 q-12 0 -12 12v135q0 10 -14 11h-303q-14 0 -15 12zM1507 289q0 -10 13 -10h133q14 0 14 12v176q0 14 -12 14q-6 0 -13 -6l-133 -178q-2 -4 -2 -8z" />
<glyph unicode="&#xbf;" d="M117 -10q0 61 11 110.5t35.5 88t63.5 70.5t95 60q33 18 63.5 32t55 30t39 37.5t14.5 56.5q0 25 -7.5 47.5t-7.5 44.5q0 18 21 19h196q33 0 33 -137q0 -90 -40 -151.5t-128 -107.5q-49 -25 -88 -45t-66.5 -41.5t-42 -48t-14.5 -65.5q0 -63 42 -104.5t106 -41.5h73 q45 0 74 23.5t57 71.5q10 18 16.5 28t16.5 10q4 0 13 -4l178 -90q12 -6 12 -14q0 -14 -23.5 -53t-76.5 -92q-94 -94 -267 -95h-73q-176 0 -278.5 98.5t-102.5 262.5zM440 821q0 57 41 97t97 40q55 0 96 -41t41 -96t-40 -96t-97 -41t-97.5 40t-40.5 97z" />
<glyph unicode="&#xc0;" horiz-adv-x="921" d="M-16 18q0 2 1 3.5t1 5.5l381 1249q6 14 20 14h148q14 0 20 -14l381 -1249q0 -4 1 -5.5t1 -3.5q0 -18 -23 -18h-206q-18 0 -21 14l-61 215q-2 12 -21 13h-293q-18 0 -20 -13l-62 -215q-2 -14 -20 -14h-205q-23 0 -22 18zM96 1731q0 16 23 16h258l16 -10l197 -301 q4 -4 4 -15q0 -16 -21 -16h-149l-14 6l-306 301q-8 8 -8 19zM362 475q0 -18 23 -18h150q23 0 22 18q0 2 -1 4t-1 4l-68 271q-2 10 -7 37.5t-15 74.5h-6q-23 -98 -25 -112l-69 -271q0 -2 -1.5 -4t-1.5 -4z" />
<glyph unicode="&#xc1;" horiz-adv-x="921" d="M-16 18q0 2 1 3.5t1 5.5l381 1249q6 14 20 14h148q14 0 20 -14l381 -1249q0 -4 1 -5.5t1 -3.5q0 -18 -23 -18h-206q-18 0 -21 14l-61 215q-2 12 -21 13h-293q-18 0 -20 -13l-62 -215q-2 -14 -20 -14h-205q-23 0 -22 18zM342 1419q0 6 6 16l199 301l16 9h258q23 0 23 -19 q0 -8 -8 -16l-305 -301l-15 -6h-151q-23 0 -23 16zM362 475q0 -18 23 -18h150q23 0 22 18q0 2 -1 4t-1 4l-68 271q-2 10 -7 37.5t-15 74.5h-6q-23 -98 -25 -112l-69 -271q0 -2 -1.5 -4t-1.5 -4z" />
<glyph unicode="&#xc2;" horiz-adv-x="921" d="M-16 18q0 2 1 3.5t1 5.5l381 1249q6 14 20 14h148q14 0 20 -14l381 -1249q0 -4 1 -5.5t1 -3.5q0 -18 -23 -18h-206q-18 0 -21 14l-61 215q-2 12 -21 13h-293q-18 0 -20 -13l-62 -215q-2 -14 -20 -14h-205q-23 0 -22 18zM178 1419q0 6 6 17l213 301l17 8h100l16 -8 l215 -301q6 -10 7 -17q0 -16 -23 -16h-166l-16 10l-68 105q-6 12 -14 12t-16 -12l-66 -105l-16 -10h-166q-23 0 -23 16zM362 475q0 -18 23 -18h150q23 0 22 18q0 2 -1 4t-1 4l-68 271q-2 10 -7 37.5t-15 74.5h-6q-23 -98 -25 -112l-69 -271q0 -2 -1.5 -4t-1.5 -4z" />
<glyph unicode="&#xc3;" horiz-adv-x="921" d="M-16 18q0 2 1 3.5t1 5.5l381 1249q6 14 20 14h148q14 0 20 -14l381 -1249q0 -4 1 -5.5t1 -3.5q0 -18 -23 -18h-206q-18 0 -21 14l-61 215q-2 12 -21 13h-293q-18 0 -20 -13l-62 -215q-2 -14 -20 -14h-205q-23 0 -22 18zM141 1534q0 8 11.5 30.5t40.5 57.5 q35 45 72.5 67.5t84.5 22.5q35 0 69 -13.5t71 -39.5l34 -25q29 -23 58 -22q23 0 39 12t28.5 27.5t20.5 28.5t16 13t15 -6l81 -65q8 -6 9 -17q0 -6 -2 -10q-90 -172 -207 -172q-63 0 -144 62l-36 20q-23 20 -52 21q-20 0 -35.5 -11.5t-27.5 -26t-20.5 -25.5t-16.5 -11 q-4 0 -12 4l-86 63q-10 6 -11 15zM362 475q0 -18 23 -18h150q23 0 22 18q0 2 -1 4t-1 4l-68 271q-2 10 -7 37.5t-15 74.5h-6q-23 -98 -25 -112l-69 -271q0 -2 -1.5 -4t-1.5 -4z" />
<glyph unicode="&#xc4;" horiz-adv-x="921" d="M-16 18q0 2 1 3.5t1 5.5l381 1249q6 14 20 14h148q14 0 20 -14l381 -1249q0 -4 1 -5.5t1 -3.5q0 -18 -23 -18h-206q-18 0 -21 14l-61 215q-2 12 -21 13h-293q-18 0 -20 -13l-62 -215q-2 -14 -20 -14h-205q-23 0 -22 18zM164 1560q0 53 37 90t90 37t90 -37t37 -90t-37 -90 t-90 -37q-55 0 -91 36t-36 91zM362 475q0 -18 23 -18h150q23 0 22 18q0 2 -1 4t-1 4l-68 271q-2 10 -7 37.5t-15 74.5h-6q-23 -98 -25 -112l-69 -271q0 -2 -1.5 -4t-1.5 -4zM510 1560q0 53 37 90t90 37t90 -37t37 -90t-37 -90t-90 -37q-55 0 -91 36t-36 91z" />
<glyph unicode="&#xc5;" horiz-adv-x="921" d="M-16 18q0 2 1 3.5t1 5.5l381 1249q6 14 20 14h148q14 0 20 -14l381 -1249q0 -4 1 -5.5t1 -3.5q0 -18 -23 -18h-206q-18 0 -21 14l-61 215q-2 12 -21 13h-293q-18 0 -20 -13l-62 -215q-2 -14 -20 -14h-205q-23 0 -22 18zM258 1583v59q0 88 55.5 141.5t149.5 53.5 t149.5 -53t55.5 -142v-59q0 -88 -55.5 -141t-149.5 -53t-149.5 53t-55.5 141zM362 475q0 -18 23 -18h150q23 0 22 18q0 2 -1 4t-1 4l-68 271q-2 10 -7 37.5t-15 74.5h-6q-23 -98 -25 -112l-69 -271q0 -2 -1.5 -4t-1.5 -4zM403 1583q0 -23 17.5 -40t42.5 -17t42 17.5t17 39.5 v59q0 23 -17.5 41.5t-41.5 18.5q-25 0 -42.5 -18.5t-17.5 -41.5v-59z" />
<glyph unicode="&#xc6;" horiz-adv-x="1404" d="M-147 16q0 2 4 15l737 1249l18 10h695q20 0 20 -20v-174q0 -20 -20 -21h-488q-20 0 -20 -20v-273q0 -20 20 -20h400q20 0 20 -21v-174q0 -20 -20 -20h-400q-20 0 -20 -21v-290q0 -20 20 -21h488q20 0 20 -20v-175q0 -20 -20 -20h-723q-20 0 -21 20v242q0 20 -20 21h-273 l-20 -9l-148 -264l-18 -10h-209q-23 0 -22 16zM395 514q0 -16 23 -16h125q20 0 20 20v82q0 117 12 252l-8 2q-16 -41 -27.5 -66.5t-19.5 -37.5l-121 -222q-4 -12 -4 -14z" />
<glyph unicode="&#xc7;" horiz-adv-x="991" d="M109 342v606q0 82 27.5 148.5t76.5 113.5t119.5 74t156.5 27h101q70 0 127 -16.5t104 -51.5q31 -23 55.5 -49.5t41 -51t25.5 -45t9 -28.5q0 -10 -12 -16l-178 -88q-4 -2 -10 -2q-10 0 -14.5 9t-14.5 25q-27 47 -57.5 73t-75.5 26h-101q-61 0 -104 -43t-43 -105v-606 q0 -61 43 -104t104 -43h101q45 0 74.5 24.5t56.5 73.5q18 39 31 39q6 0 10 -2l178 -88q12 -6 12 -17q0 -14 -21.5 -51t-68.5 -90q-76 -84 -215 -102l-20 -43q-4 -8 -4 -13q0 -6 6 -12q78 -68 78 -147v-17q0 -92 -62.5 -151.5t-165.5 -59.5h-121q-20 0 -20 21v135q0 20 20 20 h121q16 0 26.5 11.5t10.5 23.5v17q0 14 -11 25t-26 11h-82q-23 0 -22 17q0 4 4 12l67 150q-162 16 -249.5 111t-87.5 249z" />
<glyph unicode="&#xc8;" horiz-adv-x="978" d="M137 20v1250q0 20 21 20h723q20 0 20 -20v-174q0 -20 -20 -21h-488q-20 0 -20 -20v-273q0 -20 20 -20h400q20 0 20 -21v-174q0 -20 -20 -20h-400q-20 0 -20 -21v-290q0 -20 20 -21h488q20 0 20 -20v-175q0 -20 -20 -20h-723q-20 0 -21 20zM158 1731q0 16 22 16h258 l17 -10l196 -301q4 -4 4 -15q0 -16 -20 -16h-150l-14 6l-305 301q-8 8 -8 19z" />
<glyph unicode="&#xc9;" horiz-adv-x="978" d="M137 20v1250q0 20 21 20h723q20 0 20 -20v-174q0 -20 -20 -21h-488q-20 0 -20 -20v-273q0 -20 20 -20h400q20 0 20 -21v-174q0 -20 -20 -20h-400q-20 0 -20 -21v-290q0 -20 20 -21h488q20 0 20 -20v-175q0 -20 -20 -20h-723q-20 0 -21 20zM401 1419q0 6 6 16l199 301 l16 9h258q23 0 23 -19q0 -8 -8 -16l-305 -301l-15 -6h-151q-23 0 -23 16z" />
<glyph unicode="&#xca;" horiz-adv-x="978" d="M137 20v1250q0 20 21 20h723q20 0 20 -20v-174q0 -20 -20 -21h-488q-20 0 -20 -20v-273q0 -20 20 -20h400q20 0 20 -21v-174q0 -20 -20 -20h-400q-20 0 -20 -21v-290q0 -20 20 -21h488q20 0 20 -20v-175q0 -20 -20 -20h-723q-20 0 -21 20zM240 1419q0 6 6 17l213 301 l16 8h100l17 -8l215 -301q6 -10 6 -17q0 -16 -22 -16h-166l-17 10l-67 105q-6 12 -15 12q-8 0 -16 -12l-66 -105l-16 -10h-166q-23 0 -22 16z" />
<glyph unicode="&#xcb;" horiz-adv-x="978" d="M137 20v1250q0 20 21 20h723q20 0 20 -20v-174q0 -20 -20 -21h-488q-20 0 -20 -20v-273q0 -20 20 -20h400q20 0 20 -21v-174q0 -20 -20 -20h-400q-20 0 -20 -21v-290q0 -20 20 -21h488q20 0 20 -20v-175q0 -20 -20 -20h-723q-20 0 -21 20zM223 1560q0 53 37 90t90 37 t90 -37t37 -90t-37 -90t-90 -37q-55 0 -91 36t-36 91zM569 1560q0 53 37 90t90 37t90 -37t37 -90t-37 -90t-90 -37q-55 0 -91 36t-36 91z" />
<glyph unicode="&#xcc;" horiz-adv-x="509" d="M-111 1731q0 16 23 16h258l16 -10l197 -301q4 -4 4 -15q0 -16 -20 -16h-150l-14 6l-305 301q-8 8 -9 19zM137 20v1250q0 20 21 20h194q20 0 21 -20v-1250q0 -20 -21 -20h-194q-20 0 -21 20z" />
<glyph unicode="&#xcd;" horiz-adv-x="509" d="M135 1419q0 6 6 16l199 301l16 9h258q23 0 23 -19q0 -8 -8 -16l-305 -301l-15 -6h-151q-23 0 -23 16zM137 20v1250q0 20 21 20h194q20 0 21 -20v-1250q0 -20 -21 -20h-194q-20 0 -21 20z" />
<glyph unicode="&#xce;" horiz-adv-x="509" d="M-29 1419q0 6 6 17l213 301l17 8h100l17 -8l215 -301q6 -10 6 -17q0 -16 -23 -16h-166l-16 10l-68 105q-6 12 -14 12t-16 -12l-66 -105l-16 -10h-166q-23 0 -23 16zM137 20v1250q0 20 21 20h194q20 0 21 -20v-1250q0 -20 -21 -20h-194q-20 0 -21 20z" />
<glyph unicode="&#xcf;" horiz-adv-x="509" d="M-43 1560q0 53 37 90t90 37t90 -37t37 -90t-37 -90t-90 -37q-55 0 -91 36t-36 91zM137 20v1250q0 20 21 20h194q20 0 21 -20v-1250q0 -20 -21 -20h-194q-20 0 -21 20zM303 1560q0 53 37 90t90 37t90 -37t37 -90t-37 -90t-90 -37q-55 0 -91 36t-36 91z" />
<glyph unicode="&#xd0;" horiz-adv-x="1067" d="M37 549v192q0 20 20 21h60q20 0 20 20v488q0 20 21 20h420q176 0 278 -102.5t102 -278.5v-528q0 -176 -101 -278.5t-279 -102.5h-420q-20 0 -21 20v488q0 20 -20 20h-60q-20 0 -20 21zM373 236q0 -20 20 -21h185q61 0 104 42t43 105v566q0 59 -43 103t-104 44h-185 q-20 0 -20 -20v-273q0 -20 20 -20h164q20 0 21 -21v-192q0 -20 -21 -21h-164q-20 0 -20 -20v-272z" />
<glyph unicode="&#xd1;" horiz-adv-x="1126" d="M137 20v1250q0 20 21 20h172l18 -10l418 -831l-8 821q0 20 20 20h189q20 0 20 -20v-1250q0 -20 -20 -20h-170l-19 10l-420 824l11 -814q0 -20 -21 -20h-190q-20 0 -21 20zM241 1534q0 8 11.5 30.5t40.5 57.5q35 45 72.5 67.5t84.5 22.5q35 0 69 -13.5t71 -39.5l34 -25 q29 -23 58 -22q23 0 39 12t28.5 27.5t20.5 28.5t16 13t15 -6l81 -65q8 -6 9 -17q0 -6 -2 -10q-90 -172 -207 -172q-63 0 -144 62l-36 20q-23 20 -52 21q-20 0 -35.5 -11.5t-27.5 -26t-20.5 -25.5t-16.5 -11q-4 0 -12 4l-86 63q-10 6 -11 15z" />
<glyph unicode="&#xd2;" horiz-adv-x="1079" d="M109 342v606q0 82 27.5 148.5t76.5 113.5t119.5 74t156.5 27h101q86 0 156.5 -27t119.5 -74t77 -113.5t28 -148.5v-606q0 -82 -28 -148.5t-77 -114.5t-119.5 -73.5t-156.5 -25.5h-101q-86 0 -156.5 25.5t-120.5 73.5t-76.5 114.5t-26.5 148.5zM174 1731q0 16 23 16h258 l16 -10l197 -301q4 -4 4 -15q0 -16 -21 -16h-149l-15 6l-305 301q-8 8 -8 19zM342 342q0 -61 43 -104t104 -43h101q61 0 103 42t42 105v606q0 63 -42 105.5t-103 42.5h-101q-61 0 -104 -43t-43 -105v-606z" />
<glyph unicode="&#xd3;" horiz-adv-x="1079" d="M109 342v606q0 82 27.5 148.5t76.5 113.5t119.5 74t156.5 27h101q86 0 156.5 -27t119.5 -74t77 -113.5t28 -148.5v-606q0 -82 -28 -148.5t-77 -114.5t-119.5 -73.5t-156.5 -25.5h-101q-86 0 -156.5 25.5t-120.5 73.5t-76.5 114.5t-26.5 148.5zM342 342q0 -61 43 -104 t104 -43h101q61 0 103 42t42 105v606q0 63 -42 105.5t-103 42.5h-101q-61 0 -104 -43t-43 -105v-606zM418 1419q0 6 6 16l199 301l16 9h258q23 0 23 -19q0 -8 -8 -16l-305 -301l-15 -6h-151q-23 0 -23 16z" />
<glyph unicode="&#xd4;" horiz-adv-x="1079" d="M109 342v606q0 82 27.5 148.5t76.5 113.5t119.5 74t156.5 27h101q86 0 156.5 -27t119.5 -74t77 -113.5t28 -148.5v-606q0 -82 -28 -148.5t-77 -114.5t-119.5 -73.5t-156.5 -25.5h-101q-86 0 -156.5 25.5t-120.5 73.5t-76.5 114.5t-26.5 148.5zM256 1419q0 6 6 17l213 301 l17 8h100l16 -8l215 -301q6 -10 6 -17q0 -16 -22 -16h-166l-16 10l-68 105q-6 12 -14 12t-17 -12l-65 -105l-17 -10h-165q-23 0 -23 16zM342 342q0 -61 43 -104t104 -43h101q61 0 103 42t42 105v606q0 63 -42 105.5t-103 42.5h-101q-61 0 -104 -43t-43 -105v-606z" />
<glyph unicode="&#xd5;" horiz-adv-x="1079" d="M109 342v606q0 82 27.5 148.5t76.5 113.5t119.5 74t156.5 27h101q86 0 156.5 -27t119.5 -74t77 -113.5t28 -148.5v-606q0 -82 -28 -148.5t-77 -114.5t-119.5 -73.5t-156.5 -25.5h-101q-86 0 -156.5 25.5t-120.5 73.5t-76.5 114.5t-26.5 148.5zM217 1534q0 8 11.5 30.5 t40.5 57.5q35 45 72.5 67.5t84.5 22.5q35 0 69 -13.5t71 -39.5l34 -25q29 -23 58 -22q23 0 39 12t28.5 27.5t20.5 28.5t16 13t15 -6l81 -65q8 -6 9 -17q0 -6 -2 -10q-90 -172 -207 -172q-63 0 -144 62l-36 20q-23 20 -52 21q-20 0 -35.5 -11.5t-27.5 -26t-20.5 -25.5 t-16.5 -11q-4 0 -12 4l-86 63q-10 6 -11 15zM342 342q0 -61 43 -104t104 -43h101q61 0 103 42t42 105v606q0 63 -42 105.5t-103 42.5h-101q-61 0 -104 -43t-43 -105v-606z" />
<glyph unicode="&#xd6;" horiz-adv-x="1079" d="M109 342v606q0 82 27.5 148.5t76.5 113.5t119.5 74t156.5 27h101q86 0 156.5 -27t119.5 -74t77 -113.5t28 -148.5v-606q0 -82 -28 -148.5t-77 -114.5t-119.5 -73.5t-156.5 -25.5h-101q-86 0 -156.5 25.5t-120.5 73.5t-76.5 114.5t-26.5 148.5zM240 1560q0 53 37 90t90 37 t90 -37t37 -90t-37 -90t-90 -37q-55 0 -91 36t-36 91zM342 342q0 -61 43 -104t104 -43h101q61 0 103 42t42 105v606q0 63 -42 105.5t-103 42.5h-101q-61 0 -104 -43t-43 -105v-606zM586 1560q0 53 37 90t90 37t90 -37t37 -90t-37 -90t-90 -37q-55 0 -91 36t-36 91z" />
<glyph unicode="&#xd7;" horiz-adv-x="1705" d="M276 160l451 450l-451 453l140 139l450 -450l451 450l141 -139l-450 -453l450 -450l-141 -140l-451 451l-450 -451z" />
<glyph unicode="&#xd8;" horiz-adv-x="1079" d="M109 342v606q0 82 27.5 148.5t76.5 113.5t119.5 74t156.5 27h101q86 0 156.5 -27t119.5 -74t77 -113.5t28 -148.5v-606q0 -82 -28 -148.5t-77 -114.5t-119.5 -73.5t-156.5 -25.5h-101q-86 0 -156.5 25.5t-120.5 73.5t-76.5 114.5t-26.5 148.5zM342 508q0 -25 18 -25 q14 0 21 17l281 557q0 2 1 3t1 5q0 12 -19.5 21.5t-54.5 9.5h-101q-61 0 -104 -43t-43 -105v-440zM406 236q0 -16 23.5 -28.5t59.5 -12.5h101q61 0 103 42t42 105v506q0 12 -12 12t-21 -20l-292 -588q-4 -12 -4 -16z" />
<glyph unicode="&#xd9;" horiz-adv-x="1079" d="M109 342v928q0 20 20 20h193q20 0 20 -20v-928q0 -61 43 -104t104 -43h101q61 0 103 42t42 105v928q0 20 21 20h194q20 0 21 -20v-928q0 -82 -28 -148.5t-77 -114.5t-119.5 -73.5t-156.5 -25.5h-101q-86 0 -156.5 25.5t-120.5 73.5t-76.5 114.5t-26.5 148.5zM174 1731 q0 16 23 16h258l16 -10l197 -301q4 -4 4 -15q0 -16 -21 -16h-149l-15 6l-305 301q-8 8 -8 19z" />
<glyph unicode="&#xda;" horiz-adv-x="1079" d="M109 342v928q0 20 20 20h193q20 0 20 -20v-928q0 -61 43 -104t104 -43h101q61 0 103 42t42 105v928q0 20 21 20h194q20 0 21 -20v-928q0 -82 -28 -148.5t-77 -114.5t-119.5 -73.5t-156.5 -25.5h-101q-86 0 -156.5 25.5t-120.5 73.5t-76.5 114.5t-26.5 148.5zM418 1419 q0 6 6 16l199 301l16 9h258q23 0 23 -19q0 -8 -8 -16l-305 -301l-15 -6h-151q-23 0 -23 16z" />
<glyph unicode="&#xdb;" horiz-adv-x="1079" d="M109 342v928q0 20 20 20h193q20 0 20 -20v-928q0 -61 43 -104t104 -43h101q61 0 103 42t42 105v928q0 20 21 20h194q20 0 21 -20v-928q0 -82 -28 -148.5t-77 -114.5t-119.5 -73.5t-156.5 -25.5h-101q-86 0 -156.5 25.5t-120.5 73.5t-76.5 114.5t-26.5 148.5zM256 1419 q0 6 6 17l213 301l17 8h100l16 -8l215 -301q6 -10 6 -17q0 -16 -22 -16h-166l-16 10l-68 105q-6 12 -14 12t-17 -12l-65 -105l-17 -10h-165q-23 0 -23 16z" />
<glyph unicode="&#xdc;" horiz-adv-x="1079" d="M109 342v928q0 20 20 20h193q20 0 20 -20v-928q0 -61 43 -104t104 -43h101q61 0 103 42t42 105v928q0 20 21 20h194q20 0 21 -20v-928q0 -82 -28 -148.5t-77 -114.5t-119.5 -73.5t-156.5 -25.5h-101q-86 0 -156.5 25.5t-120.5 73.5t-76.5 114.5t-26.5 148.5zM240 1560 q0 53 37 90t90 37t90 -37t37 -90t-37 -90t-90 -37q-55 0 -91 36t-36 91zM586 1560q0 53 37 90t90 37t90 -37t37 -90t-37 -90t-90 -37q-55 0 -91 36t-36 91z" />
<glyph unicode="&#xdd;" horiz-adv-x="921" d="M-20 1274q0 16 22 16h227l19 -12l194 -401q6 -14 19 -15q12 0 18 15l195 401l18 12h226q23 0 22 -16q0 -2 -4 -14l-358 -672v-568q0 -20 -21 -20h-195q-20 0 -20 20v568l-358 672q-4 12 -4 14zM342 1419q0 6 6 16l199 301l16 9h258q23 0 23 -19q0 -8 -8 -16l-305 -301 l-15 -6h-151q-23 0 -23 16z" />
<glyph unicode="&#xde;" horiz-adv-x="989" d="M137 20v1250q0 20 21 20h194q20 0 21 -20v-135q0 -20 20 -21h185q176 0 278 -103.5t102 -277.5q0 -80 -27.5 -146.5t-77.5 -114.5t-119.5 -74.5t-155.5 -26.5h-185q-20 0 -20 -21v-330q0 -20 -21 -20h-194q-20 0 -21 20zM373 608q0 -20 20 -20h185q61 0 104 43t43 104v19 q0 59 -43 103t-104 44h-185q-20 0 -20 -20v-273z" />
<glyph unicode="&#xdf;" horiz-adv-x="1005" d="M59 655v174q0 20 21 21h47q20 0 20 20v58q0 72 29 141.5t84 128.5q51 55 123 84t158 29q80 0 147.5 -28t116.5 -78t76.5 -120.5t27.5 -156.5v-39q0 -35 -12 -74t-35 -67q-33 -43 -51 -66t-18 -29t18 -27.5t47 -62.5q25 -35 38 -77t13 -78v-50q0 -86 -29.5 -155.5 t-79.5 -119.5t-117 -76.5t-142 -26.5q-23 0 -33 3t-10 17v176q0 18 18.5 20.5t58.5 12.5q41 10 70 47t29 86v59q0 47 -29 84t-70 47t-59 12.5t-18 20.5v178q0 18 17 20.5t58 12.5q43 10 72 47t29 86v39q0 61 -42 104.5t-104 43.5q-66 0 -106.5 -42t-40.5 -106v-928 q0 -20 -21 -20h-192q-20 0 -21 20v594q0 20 -20 21h-47q-20 0 -21 20z" />
<glyph unicode="&#xe0;" horiz-adv-x="968" d="M111 721q0 12 22.5 55t75.5 94q90 88 260 88q86 0 156.5 -25.5t121 -72.5t78 -113.5t27.5 -148.5v-578q0 -20 -21 -20h-174q-12 0 -16 6t-6 13.5t-4 13.5t-8 6q-16 0 -52 -19.5t-92 -19.5h-78q-63 0 -116.5 20.5t-91 57.5t-59 87t-21.5 109v11q0 123 79.5 198.5 t208.5 75.5h197q20 0 20 19v4l-2 24q-6 63 -45 100t-102 37q-29 0 -59.5 -16t-53.5 -45t-32 -48.5t-21 -19.5q-4 0 -12 4l-168 89q-12 6 -12 14zM117 1378q0 16 22 17h258l17 -11l196 -301q4 -4 4 -14q0 -16 -20 -16h-150l-14 6l-305 301q-8 8 -8 18zM346 274 q0 -27 15.5 -43t39.5 -16h78q96 0 137 115v8v9t2 15h-217q-23 0 -39 -17t-16 -40v-31z" />
<glyph unicode="&#xe1;" horiz-adv-x="968" d="M111 721q0 12 22.5 55t75.5 94q90 88 260 88q86 0 156.5 -25.5t121 -72.5t78 -113.5t27.5 -148.5v-578q0 -20 -21 -20h-174q-12 0 -16 6t-6 13.5t-4 13.5t-8 6q-16 0 -52 -19.5t-92 -19.5h-78q-63 0 -116.5 20.5t-91 57.5t-59 87t-21.5 109v11q0 123 79.5 198.5 t208.5 75.5h197q20 0 20 19v4l-2 24q-6 63 -45 100t-102 37q-29 0 -59.5 -16t-53.5 -45t-32 -48.5t-21 -19.5q-4 0 -12 4l-168 89q-12 6 -12 14zM346 274q0 -27 15.5 -43t39.5 -16h78q96 0 137 115v8v9t2 15h-217q-23 0 -39 -17t-16 -40v-31zM362 1067q0 6 6 16l199 301 l16 9h258q23 0 23 -19q0 -8 -8 -16l-305 -301l-15 -6h-151q-23 0 -23 16z" />
<glyph unicode="&#xe2;" horiz-adv-x="968" d="M111 721q0 12 22.5 55t75.5 94q90 88 260 88q86 0 156.5 -25.5t121 -72.5t78 -113.5t27.5 -148.5v-578q0 -20 -21 -20h-174q-12 0 -16 6t-6 13.5t-4 13.5t-8 6q-16 0 -52 -19.5t-92 -19.5h-78q-63 0 -116.5 20.5t-91 57.5t-59 87t-21.5 109v11q0 123 79.5 198.5 t208.5 75.5h197q20 0 20 19v4l-2 24q-6 63 -45 100t-102 37q-29 0 -59.5 -16t-53.5 -45t-32 -48.5t-21 -19.5q-4 0 -12 4l-168 89q-12 6 -12 14zM199 1067q0 6 6 16l213 301l16 9h101l16 -9l215 -301q6 -10 6 -16q0 -16 -22 -16h-166l-17 10l-67 104q-6 12 -15 13 q-8 0 -16 -13l-66 -104l-16 -10h-166q-23 0 -22 16zM346 274q0 -27 15.5 -43t39.5 -16h78q96 0 137 115v8v9t2 15h-217q-23 0 -39 -17t-16 -40v-31z" />
<glyph unicode="&#xe3;" horiz-adv-x="968" d="M111 721q0 12 22.5 55t75.5 94q90 88 260 88q86 0 156.5 -25.5t121 -72.5t78 -113.5t27.5 -148.5v-578q0 -20 -21 -20h-174q-12 0 -16 6t-6 13.5t-4 13.5t-8 6q-16 0 -52 -19.5t-92 -19.5h-78q-63 0 -116.5 20.5t-91 57.5t-59 87t-21.5 109v11q0 123 79.5 198.5 t208.5 75.5h197q20 0 20 19v4l-2 24q-6 63 -45 100t-102 37q-29 0 -59.5 -16t-53.5 -45t-32 -48.5t-21 -19.5q-4 0 -12 4l-168 89q-12 6 -12 14zM161 1182q0 8 11.5 30.5t40.5 57.5q35 45 72.5 67.5t84.5 22.5q35 0 69 -13.5t71 -39.5l34 -25q29 -23 58 -22q23 0 39 12 t28.5 27.5t20.5 28.5t16 13t15 -6l81 -65q8 -6 9 -17q0 -6 -2 -10q-90 -172 -207 -172q-63 0 -144 62l-36 20q-23 20 -52 21q-20 0 -35.5 -11.5t-27.5 -26t-20.5 -25.5t-16.5 -11q-4 0 -12 4l-86 63q-10 6 -11 15zM346 274q0 -27 15.5 -43t39.5 -16h78q96 0 137 115v8v9 t2 15h-217q-23 0 -39 -17t-16 -40v-31z" />
<glyph unicode="&#xe4;" horiz-adv-x="968" d="M111 721q0 12 22.5 55t75.5 94q90 88 260 88q86 0 156.5 -25.5t121 -72.5t78 -113.5t27.5 -148.5v-578q0 -20 -21 -20h-174q-12 0 -16 6t-6 13.5t-4 13.5t-8 6q-16 0 -52 -19.5t-92 -19.5h-78q-63 0 -116.5 20.5t-91 57.5t-59 87t-21.5 109v11q0 123 79.5 198.5 t208.5 75.5h197q20 0 20 19v4l-2 24q-6 63 -45 100t-102 37q-29 0 -59.5 -16t-53.5 -45t-32 -48.5t-21 -19.5q-4 0 -12 4l-168 89q-12 6 -12 14zM184 1208q0 53 37 90t90 37t90 -37t37 -90t-37 -90t-90 -37q-55 0 -91 36t-36 91zM346 274q0 -27 15.5 -43t39.5 -16h78 q96 0 137 115v8v9t2 15h-217q-23 0 -39 -17t-16 -40v-31zM530 1208q0 53 37 90t90 37t90 -37t37 -90t-37 -90t-90 -37q-55 0 -91 36t-36 91z" />
<glyph unicode="&#xe5;" horiz-adv-x="968" d="M111 721q0 12 22.5 55t75.5 94q90 88 260 88q86 0 156.5 -25.5t121 -72.5t78 -113.5t27.5 -148.5v-578q0 -20 -21 -20h-174q-12 0 -16 6t-6 13.5t-4 13.5t-8 6q-16 0 -52 -19.5t-92 -19.5h-78q-63 0 -116.5 20.5t-91 57.5t-59 87t-21.5 109v11q0 123 79.5 198.5 t208.5 75.5h197q20 0 20 19v4l-2 24q-6 63 -45 100t-102 37q-29 0 -59.5 -16t-53.5 -45t-32 -48.5t-21 -19.5q-4 0 -12 4l-168 89q-12 6 -12 14zM279 1247v60q0 88 55 141t149 53t149.5 -54t55.5 -140v-60q0 -86 -55 -140t-150 -54q-94 0 -149 53t-55 141zM346 274 q0 -27 15.5 -43t39.5 -16h78q96 0 137 115v8v9t2 15h-217q-23 0 -39 -17t-16 -40v-31zM424 1247q0 -23 17.5 -40t41.5 -17q25 0 42.5 17.5t17.5 39.5v60q0 23 -18.5 41t-41.5 18q-25 0 -42 -18.5t-17 -40.5v-60z" />
<glyph unicode="&#xe6;" horiz-adv-x="1468" d="M88 254v39q0 59 21.5 109.5t60.5 87t93 57t120 20.5h213q20 0 20 21v4q0 61 -42 106t-103 45q-35 0 -66.5 -19t-50.5 -48q-18 -29 -25 -48.5t-20 -19.5q-6 0 -10 2l-176 88q-12 6 -12 17q0 16 21.5 54t72.5 89q47 47 113.5 73.5t152.5 26.5q63 0 110.5 -14t80 -31.5 t52 -32t25.5 -14.5t24.5 14.5t49.5 32t77 31.5t107 14q98 0 184.5 -47t139.5 -127q29 -41 43 -91t14 -97v-166q0 -20 -20 -20h-486q-20 0 -20 -21v-47q0 -61 41 -104t104 -43q45 0 76 24.5t57 73.5q10 20 16.5 30.5t16.5 10.5q2 0 11 -4l178 -90q12 -6 12 -15 q0 -10 -22.5 -53t-75.5 -96q-96 -96 -269 -96q-121 0 -200 49q-41 25 -61.5 42t-26.5 17t-28 -17.5t-63 -45.5q-31 -20 -67.5 -32.5t-71.5 -12.5h-96q-66 0 -120 20t-93 57t-60.5 87.5t-21.5 109.5zM324 254q0 -27 16 -43t43 -16h96q37 0 73 27.5t60 82.5l4 27v26 q-2 14 -20 15h-213q-27 0 -43 -16.5t-16 -43.5v-59zM856 625q0 -18 21 -19h243q20 0 21 19q0 43 -42 80.5t-102 37.5q-59 0 -100 -37.5t-41 -80.5z" />
<glyph unicode="&#xe7;" horiz-adv-x="878" d="M88 342v254q0 82 27.5 148.5t78 113.5t121 73.5t156.5 26.5q72 0 129 -16t105 -51q31 -23 54 -49.5t39.5 -51t26 -45t9.5 -28.5q0 -10 -13 -17l-178 -88q-4 -2 -10 -2q-10 0 -14.5 9.5t-14.5 25.5q-27 49 -57.5 73.5t-75.5 24.5q-66 0 -106.5 -43t-40.5 -104v-254 q0 -61 41 -104t106 -43q45 0 74.5 24.5t56.5 73.5q18 39 31 39q6 0 10 -2l178 -88q12 -6 13 -17q0 -18 -48 -88q-41 -59 -93 -96t-124 -53l-24 -49q-4 -8 -4 -13q0 -6 6 -12q78 -68 78 -147v-17q0 -92 -62.5 -151.5t-165.5 -59.5h-121q-20 0 -20 21v135q0 20 20 20h121 q16 0 26.5 11.5t10.5 23.5v17q0 14 -11 25t-26 11h-82q-23 0 -22 17q0 4 4 12l72 158q-135 33 -208 124t-73 228z" />
<glyph unicode="&#xe8;" horiz-adv-x="940" d="M88 342v254q0 47 14.5 97t42.5 91q55 84 140.5 129t185.5 45q98 0 184 -45t140 -129q29 -41 43 -91t14 -97v-166q0 -20 -21 -20h-487q-20 0 -20 -21v-47q0 -61 41 -104t106 -43q45 0 74.5 24.5t56.5 73.5q18 39 31 39q6 0 10 -2l178 -88q12 -6 13 -17q0 -16 -24 -56 t-77 -95q-90 -94 -262 -94q-86 0 -156.5 25.5t-121 73.5t-78 114.5t-27.5 148.5zM102 1378q0 16 23 17h258l16 -11l197 -301q4 -4 4 -14q0 -16 -20 -16h-150l-14 6l-305 301q-8 8 -9 18zM328 625q0 -18 20 -19h244q20 0 20 21q0 20 -11 40.5t-31.5 38t-46 27.5t-52.5 10 q-59 0 -101 -37.5t-42 -80.5z" />
<glyph unicode="&#xe9;" horiz-adv-x="940" d="M88 342v254q0 47 14.5 97t42.5 91q55 84 140.5 129t185.5 45q98 0 184 -45t140 -129q29 -41 43 -91t14 -97v-166q0 -20 -21 -20h-487q-20 0 -20 -21v-47q0 -61 41 -104t106 -43q45 0 74.5 24.5t56.5 73.5q18 39 31 39q6 0 10 -2l178 -88q12 -6 13 -17q0 -16 -24 -56 t-77 -95q-90 -94 -262 -94q-86 0 -156.5 25.5t-121 73.5t-78 114.5t-27.5 148.5zM328 625q0 -18 20 -19h244q20 0 20 21q0 20 -11 40.5t-31.5 38t-46 27.5t-52.5 10q-59 0 -101 -37.5t-42 -80.5zM348 1067q0 6 6 16l199 301l16 9h258q23 0 23 -19q0 -8 -8 -16l-305 -301 l-15 -6h-151q-23 0 -23 16z" />
<glyph unicode="&#xea;" horiz-adv-x="940" d="M88 342v254q0 47 14.5 97t42.5 91q55 84 140.5 129t185.5 45q98 0 184 -45t140 -129q29 -41 43 -91t14 -97v-166q0 -20 -21 -20h-487q-20 0 -20 -21v-47q0 -61 41 -104t106 -43q45 0 74.5 24.5t56.5 73.5q18 39 31 39q6 0 10 -2l178 -88q12 -6 13 -17q0 -16 -24 -56 t-77 -95q-90 -94 -262 -94q-86 0 -156.5 25.5t-121 73.5t-78 114.5t-27.5 148.5zM184 1067q0 6 6 16l213 301l17 9h100l17 -9l215 -301q6 -10 6 -16q0 -16 -23 -16h-166l-16 10l-68 104q-6 12 -14 13q-8 0 -16 -13l-66 -104l-16 -10h-166q-23 0 -23 16zM328 625 q0 -18 20 -19h244q20 0 20 21q0 20 -11 40.5t-31.5 38t-46 27.5t-52.5 10q-59 0 -101 -37.5t-42 -80.5z" />
<glyph unicode="&#xeb;" horiz-adv-x="940" d="M88 342v254q0 47 14.5 97t42.5 91q55 84 140.5 129t185.5 45q98 0 184 -45t140 -129q29 -41 43 -91t14 -97v-166q0 -20 -21 -20h-487q-20 0 -20 -21v-47q0 -61 41 -104t106 -43q45 0 74.5 24.5t56.5 73.5q18 39 31 39q6 0 10 -2l178 -88q12 -6 13 -17q0 -16 -24 -56 t-77 -95q-90 -94 -262 -94q-86 0 -156.5 25.5t-121 73.5t-78 114.5t-27.5 148.5zM170 1208q0 53 37 90t90 37t90 -37t37 -90t-37 -90t-90 -37q-55 0 -91 36t-36 91zM328 625q0 -18 20 -19h244q20 0 20 21q0 20 -11 40.5t-31.5 38t-46 27.5t-52.5 10q-59 0 -101 -37.5 t-42 -80.5zM516 1208q0 53 37 90t90 37t90 -37t37 -90t-37 -90t-90 -37q-55 0 -91 36t-36 91z" />
<glyph unicode="&#xec;" horiz-adv-x="471" d="M-131 1378q0 16 22 17h259l16 -11l196 -301q4 -4 5 -14q0 -16 -21 -16h-149l-15 6l-305 301q-8 8 -8 18zM119 20v898q0 20 20 20h193q20 0 20 -20v-898q0 -20 -20 -20h-193q-20 0 -20 20z" />
<glyph unicode="&#xed;" horiz-adv-x="471" d="M115 1067q0 6 6 16l199 301l16 9h258q23 0 23 -19q0 -8 -8 -16l-305 -301l-15 -6h-151q-23 0 -23 16zM119 20v898q0 20 20 20h193q20 0 20 -20v-898q0 -20 -20 -20h-193q-20 0 -20 20z" />
<glyph unicode="&#xee;" horiz-adv-x="471" d="M-49 1067q0 6 6 16l213 301l16 9h101l16 -9l215 -301q6 -10 6 -16q0 -16 -22 -16h-166l-17 10l-67 104q-6 12 -14 13q-8 0 -17 -13l-65 -104l-17 -10h-166q-23 0 -22 16zM119 20v898q0 20 20 20h193q20 0 20 -20v-898q0 -20 -20 -20h-193q-20 0 -20 20z" />
<glyph unicode="&#xef;" horiz-adv-x="471" d="M-63 1208q0 53 37 90t90 37t90 -37t37 -90t-37 -90t-90 -37q-55 0 -91 36t-36 91zM119 20v898q0 20 20 20h193q20 0 20 -20v-898q0 -20 -20 -20h-193q-20 0 -20 20zM283 1208q0 53 37 90t90 37t90 -37t37 -90t-37 -90t-90 -37q-55 0 -91 36t-36 91z" />
<glyph unicode="&#xf0;" d="M137 342v78q0 150 107 260q96 102 241 102q68 0 108 -21.5t58 -21.5q14 0 15 23v82q0 23 -17 22q-8 0 -16 -6l-39 -26q-4 -4 -14 -5q-8 0 -15 9l-78 110q-4 4 -4 13q0 10 9 16l98 67q12 8 12 19q0 10 -21.5 21.5t-62.5 11.5q-49 0 -78.5 -24.5t-54.5 -72.5 q-8 -16 -12 -26t-15 -10q-2 0 -10 4l-176 88q-12 6 -12 14q0 16 21.5 55t72.5 93q90 94 264 94q119 0 197 -47q45 -29 66.5 -45.5t27.5 -16.5t14 4l92 64q8 6 17 6q6 0 12 -10l74 -107q4 -4 4 -12q0 -10 -8 -17l-113 -79q-8 -8 -8 -23q0 -4 4 -23.5t4 -56.5v-606 q0 -80 -27.5 -147.5t-78 -114.5t-121 -73.5t-156.5 -26.5t-156.5 25.5t-119.5 73.5t-77 114.5t-28 148.5zM373 342q0 -61 41 -104t104 -43q61 0 104.5 44t43.5 103v78q0 59 -43 103t-105 44q-63 0 -104 -43t-41 -104v-78z" />
<glyph unicode="&#xf1;" horiz-adv-x="999" d="M119 20v898q0 20 20 20h174q12 0 16.5 -6t6.5 -14.5t4 -14.5t8 -6q8 0 22.5 6t35 14.5t48 14.5t62.5 6q78 0 144.5 -26.5t115.5 -73.5t77 -114t28 -146v-558q0 -20 -21 -20h-194q-20 0 -21 20v558q0 61 -41 103t-104 42q-66 0 -107 -42t-41 -103v-558q0 -20 -20 -20h-193 q-20 0 -20 20zM178 1182q0 8 11.5 30.5t40.5 57.5q35 45 72.5 67.5t84.5 22.5q35 0 69 -13.5t71 -39.5l34 -25q29 -23 58 -22q23 0 39 12t28.5 27.5t20.5 28.5t16 13t15 -6l81 -65q8 -6 9 -17q0 -6 -2 -10q-90 -172 -207 -172q-63 0 -144 62l-36 20q-23 20 -52 21 q-20 0 -35.5 -11.5t-27.5 -26t-20.5 -25.5t-16.5 -11q-4 0 -12 4l-86 63q-10 6 -11 15z" />
<glyph unicode="&#xf2;" horiz-adv-x="940" d="M88 342v254q0 82 27.5 148.5t78 113.5t121 73.5t156.5 26.5t156.5 -26.5t120 -73.5t77 -113.5t27.5 -148.5v-254q0 -82 -27.5 -148.5t-77 -114.5t-120 -73.5t-156.5 -25.5t-156.5 25.5t-121 73.5t-78 114.5t-27.5 148.5zM102 1378q0 16 23 17h258l16 -11l197 -301 q4 -4 4 -14q0 -16 -20 -16h-150l-14 6l-305 301q-8 8 -9 18zM324 342q0 -61 41 -104t106 -43q61 0 103 43t42 104v254q0 61 -42 104t-103 43q-66 0 -106.5 -43t-40.5 -104v-254z" />
<glyph unicode="&#xf3;" horiz-adv-x="940" d="M88 342v254q0 82 27.5 148.5t78 113.5t121 73.5t156.5 26.5t156.5 -26.5t120 -73.5t77 -113.5t27.5 -148.5v-254q0 -82 -27.5 -148.5t-77 -114.5t-120 -73.5t-156.5 -25.5t-156.5 25.5t-121 73.5t-78 114.5t-27.5 148.5zM324 342q0 -61 41 -104t106 -43q61 0 103 43 t42 104v254q0 61 -42 104t-103 43q-66 0 -106.5 -43t-40.5 -104v-254zM348 1067q0 6 6 16l199 301l16 9h258q23 0 23 -19q0 -8 -8 -16l-305 -301l-15 -6h-151q-23 0 -23 16z" />
<glyph unicode="&#xf4;" horiz-adv-x="940" d="M88 342v254q0 82 27.5 148.5t78 113.5t121 73.5t156.5 26.5t156.5 -26.5t120 -73.5t77 -113.5t27.5 -148.5v-254q0 -82 -27.5 -148.5t-77 -114.5t-120 -73.5t-156.5 -25.5t-156.5 25.5t-121 73.5t-78 114.5t-27.5 148.5zM184 1067q0 6 6 16l213 301l17 9h100l17 -9 l215 -301q6 -10 6 -16q0 -16 -23 -16h-166l-16 10l-68 104q-6 12 -14 13q-8 0 -16 -13l-66 -104l-16 -10h-166q-23 0 -23 16zM324 342q0 -61 41 -104t106 -43q61 0 103 43t42 104v254q0 61 -42 104t-103 43q-66 0 -106.5 -43t-40.5 -104v-254z" />
<glyph unicode="&#xf5;" horiz-adv-x="940" d="M88 342v254q0 82 27.5 148.5t78 113.5t121 73.5t156.5 26.5t156.5 -26.5t120 -73.5t77 -113.5t27.5 -148.5v-254q0 -82 -27.5 -148.5t-77 -114.5t-120 -73.5t-156.5 -25.5t-156.5 25.5t-121 73.5t-78 114.5t-27.5 148.5zM147 1182q0 8 11.5 30.5t40.5 57.5 q35 45 72.5 67.5t84.5 22.5q35 0 69 -13.5t71 -39.5l34 -25q29 -23 58 -22q23 0 39 12t28.5 27.5t20.5 28.5t16 13t15 -6l81 -65q8 -6 9 -17q0 -6 -2 -10q-90 -172 -207 -172q-63 0 -144 62l-36 20q-23 20 -52 21q-20 0 -35.5 -11.5t-27.5 -26t-20.5 -25.5t-16.5 -11 q-4 0 -12 4l-86 63q-10 6 -11 15zM324 342q0 -61 41 -104t106 -43q61 0 103 43t42 104v254q0 61 -42 104t-103 43q-66 0 -106.5 -43t-40.5 -104v-254z" />
<glyph unicode="&#xf6;" horiz-adv-x="940" d="M88 342v254q0 82 27.5 148.5t78 113.5t121 73.5t156.5 26.5t156.5 -26.5t120 -73.5t77 -113.5t27.5 -148.5v-254q0 -82 -27.5 -148.5t-77 -114.5t-120 -73.5t-156.5 -25.5t-156.5 25.5t-121 73.5t-78 114.5t-27.5 148.5zM170 1208q0 53 37 90t90 37t90 -37t37 -90 t-37 -90t-90 -37q-55 0 -91 36t-36 91zM324 342q0 -61 41 -104t106 -43q61 0 103 43t42 104v254q0 61 -42 104t-103 43q-66 0 -106.5 -43t-40.5 -104v-254zM516 1208q0 53 37 90t90 37t90 -37t37 -90t-37 -90t-90 -37q-55 0 -91 36t-36 91z" />
<glyph unicode="&#xf7;" horiz-adv-x="1705" d="M254 512v199h1198v-199h-1198zM702 217q0 66 45.5 109t106.5 43t106.5 -44t45.5 -108q0 -59 -44 -104t-108 -45q-63 0 -107.5 43t-44.5 106zM702 1004q0 66 45.5 108.5t106.5 42.5t106.5 -44t45.5 -107q0 -61 -43 -106.5t-109 -45.5q-63 0 -107.5 44t-44.5 108z" />
<glyph unicode="&#xf8;" horiz-adv-x="940" d="M88 342v254q0 82 27.5 148.5t78 113.5t121 73.5t156.5 26.5t156.5 -26.5t120 -73.5t77 -113.5t27.5 -148.5v-254q0 -82 -27.5 -148.5t-77 -114.5t-120 -73.5t-156.5 -25.5t-156.5 25.5t-121 73.5t-78 114.5t-27.5 148.5zM324 424q0 -25 18 -25q14 0 20 17l132 299 q4 8 4 12q0 16 -23 16h-4q-63 0 -105 -42t-42 -105v-172zM434 211q0 -16 23 -16h14q61 0 103 42t42 105v254q0 8 -12 8q-10 0 -12 -8l-154 -373q-4 -8 -4 -12z" />
<glyph unicode="&#xf9;" horiz-adv-x="978" d="M98 362v556q0 20 21 20h194q20 0 21 -20v-556q0 -63 41 -105t104 -42t105.5 43t42.5 104v556q0 20 20 20h193q20 0 20 -20v-898q0 -20 -20 -20h-174q-10 0 -14.5 6t-6.5 14.5t-5 14.5t-9 6q-18 0 -57 -20.5t-109 -20.5q-80 0 -147.5 26.5t-115.5 73.5t-76 115t-28 147z M123 1378q0 16 22 17h258l17 -11l196 -301q4 -4 5 -14q0 -16 -21 -16h-149l-15 6l-305 301q-8 8 -8 18z" />
<glyph unicode="&#xfa;" horiz-adv-x="978" d="M98 362v556q0 20 21 20h194q20 0 21 -20v-556q0 -63 41 -105t104 -42t105.5 43t42.5 104v556q0 20 20 20h193q20 0 20 -20v-898q0 -20 -20 -20h-174q-10 0 -14.5 6t-6.5 14.5t-5 14.5t-9 6q-18 0 -57 -20.5t-109 -20.5q-80 0 -147.5 26.5t-115.5 73.5t-76 115t-28 147z M369 1067q0 6 6 16l199 301l16 9h258q23 0 23 -19q0 -8 -8 -16l-305 -301l-15 -6h-151q-23 0 -23 16z" />
<glyph unicode="&#xfb;" horiz-adv-x="978" d="M98 362v556q0 20 21 20h194q20 0 21 -20v-556q0 -63 41 -105t104 -42t105.5 43t42.5 104v556q0 20 20 20h193q20 0 20 -20v-898q0 -20 -20 -20h-174q-10 0 -14.5 6t-6.5 14.5t-5 14.5t-9 6q-18 0 -57 -20.5t-109 -20.5q-80 0 -147.5 26.5t-115.5 73.5t-76 115t-28 147z M205 1067q0 6 6 16l213 301l16 9h101l16 -9l215 -301q6 -10 6 -16q0 -16 -22 -16h-166l-17 10l-67 104q-6 12 -14 13q-8 0 -17 -13l-65 -104l-17 -10h-166q-23 0 -22 16z" />
<glyph unicode="&#xfc;" horiz-adv-x="978" d="M98 362v556q0 20 21 20h194q20 0 21 -20v-556q0 -63 41 -105t104 -42t105.5 43t42.5 104v556q0 20 20 20h193q20 0 20 -20v-898q0 -20 -20 -20h-174q-10 0 -14.5 6t-6.5 14.5t-5 14.5t-9 6q-18 0 -57 -20.5t-109 -20.5q-80 0 -147.5 26.5t-115.5 73.5t-76 115t-28 147z M191 1208q0 53 37 90t90 37t90 -37t37 -90t-37 -90t-90 -37q-55 0 -91 36t-36 91zM537 1208q0 53 37 90t90 37t90 -37t37 -90t-37 -90t-90 -37q-55 0 -91 36t-36 91z" />
<glyph unicode="&#xfd;" horiz-adv-x="978" d="M98 362v556q0 20 21 20h194q20 0 21 -20v-556q0 -63 41 -105t104 -42t105.5 43t42.5 104v556q0 20 20 20h193q20 0 20 -20v-1018q0 -178 -101.5 -279.5t-279.5 -101.5q-141 0 -233 65q-31 20 -54.5 48t-40 52.5t-24.5 45t-8 30.5q0 8 12 15l176 88q8 4 10 4 q10 0 15.5 -10.5t13.5 -26.5q27 -47 56.5 -71.5t76.5 -24.5q61 0 104.5 44t43.5 103v127q0 20 -15 21q-16 0 -48 -14.5t-85 -14.5q-86 0 -156.5 25.5t-120.5 73.5t-77 115t-27 148zM369 1067q0 6 6 16l199 301l16 9h258q23 0 23 -19q0 -8 -8 -16l-305 -301l-15 -6h-151 q-23 0 -23 16z" />
<glyph unicode="&#xfe;" horiz-adv-x="968" d="M119 -440v1710q0 20 20 20h193q20 0 20 -20v-350q0 -23 15 -23q16 0 53 20.5t106 20.5q74 0 139.5 -26.5t112.5 -73.5t75 -114t28 -146v-216q0 -78 -27 -144t-75 -114.5t-114.5 -76t-146.5 -27.5q-55 0 -93 20.5t-58 20.5q-14 0 -15 -23v-458q0 -20 -20 -21h-193 q-20 0 -20 21zM352 362q0 -61 42 -104t106 -43q63 0 104 42t41 105v216q0 61 -41 103t-104 42q-66 0 -107 -42t-41 -103v-216z" />
<glyph unicode="&#xff;" horiz-adv-x="978" d="M98 362v556q0 20 21 20h194q20 0 21 -20v-556q0 -63 41 -105t104 -42t105.5 43t42.5 104v556q0 20 20 20h193q20 0 20 -20v-1018q0 -178 -101.5 -279.5t-279.5 -101.5q-141 0 -233 65q-31 20 -54.5 48t-40 52.5t-24.5 45t-8 30.5q0 8 12 15l176 88q8 4 10 4 q10 0 15.5 -10.5t13.5 -26.5q27 -47 56.5 -71.5t76.5 -24.5q61 0 104.5 44t43.5 103v127q0 20 -15 21q-16 0 -48 -14.5t-85 -14.5q-86 0 -156.5 25.5t-120.5 73.5t-77 115t-27 148zM188 1208q0 53 37 90t90 37t90 -37t37 -90t-36.5 -90t-90.5 -37q-55 0 -91 36t-36 91z M535 1208q0 53 36.5 90t90.5 37q53 0 89.5 -37t36.5 -90t-36.5 -90t-89.5 -37q-55 0 -91 36t-36 91z" />
<glyph unicode="&#x152;" horiz-adv-x="1536" d="M109 342v606q0 82 27.5 148.5t76.5 113.5t119.5 74t156.5 27h60q68 0 127 -21h762q20 0 20 -20v-174q0 -20 -20 -21h-500q-20 0 -20 -20q0 -12 6 -39t6 -68v-166q0 -20 20 -20h400q20 0 20 -21v-174q0 -20 -20 -20h-400q-20 0 -20 -21v-184q0 -43 -6 -68.5t-6 -37.5 q0 -20 20 -21h500q20 0 20 -20v-175q0 -20 -20 -20h-762q-59 -20 -127 -20h-60q-86 0 -156.5 25.5t-120.5 73.5t-76.5 114.5t-26.5 148.5zM342 342q0 -61 43 -104t104 -43h60q61 0 103 42t42 105v606q0 63 -42 105.5t-103 42.5h-60q-61 0 -104 -43t-43 -105v-606z" />
<glyph unicode="&#x153;" horiz-adv-x="1468" d="M88 342v254q0 82 27.5 148.5t78 113.5t121 73.5t156.5 26.5q63 0 111.5 -14t82 -30.5t52 -31t24.5 -14.5q8 0 26.5 14.5t50.5 31t76 30.5t103 14q98 0 184.5 -46t139.5 -128q29 -41 43 -91t14 -97v-166q0 -20 -20 -20h-486q-20 0 -20 -21v-51q0 -57 43 -100t102 -43 q45 0 76 24.5t57 73.5q10 20 16.5 30.5t16.5 10.5q2 0 11 -4l178 -90q12 -6 12 -15q0 -10 -22.5 -53t-75.5 -96q-96 -96 -269 -96q-66 0 -111.5 12t-78.5 27.5t-50.5 28.5t-23.5 13t-24.5 -13t-51 -28.5t-79 -27.5t-107.5 -12q-86 0 -156.5 25.5t-121 73.5t-78 114.5 t-27.5 148.5zM324 342q0 -61 41 -104t106 -43q61 0 103 43t42 104v254q0 61 -42 104t-103 43q-66 0 -106.5 -43t-40.5 -104v-254zM850 627q0 -20 20 -21h250q20 0 21 19q0 43 -43 80.5t-101 37.5q-96 0 -147 -106v-10z" />
<glyph unicode="&#x178;" horiz-adv-x="921" d="M-20 1274q0 16 22 16h227l19 -12l194 -401q6 -14 19 -15q12 0 18 15l195 401l18 12h226q23 0 22 -16q0 -2 -4 -14l-358 -672v-568q0 -20 -21 -20h-195q-20 0 -20 20v568l-358 672q-4 12 -4 14zM162 1561q0 53 37 90t90 37t90 -37t37 -90t-37 -90t-90 -37q-55 0 -91 35.5 t-36 91.5zM508 1561q0 53 37 90t90 37t90 -37t37 -90t-37 -90t-90 -37q-55 0 -91 35.5t-36 91.5z" />
<glyph unicode="&#x2c6;" horiz-adv-x="1024" d="M227 1067q0 6 6 16l213 301l17 9h100l17 -9l215 -301q6 -10 6 -16q0 -16 -23 -16h-166l-16 10l-68 104q-6 12 -14 13q-8 0 -16 -13l-66 -104l-16 -10h-166q-23 0 -23 16z" />
<glyph unicode="&#x2dc;" horiz-adv-x="1024" d="M188 1182q0 8 11.5 30.5t40.5 57.5q35 45 72.5 67.5t84.5 22.5q35 0 69 -13.5t71 -39.5l34 -25q29 -23 58 -22q23 0 39 12t28.5 27.5t20.5 28.5t16 13t15 -6l81 -65q8 -6 9 -17q0 -6 -2 -10q-90 -172 -207 -172q-63 0 -144 62l-36 20q-23 20 -52 21q-20 0 -35.5 -11.5 t-27.5 -26t-20.5 -25.5t-16.5 -11q-4 0 -12 4l-86 63q-10 6 -11 15z" />
<glyph unicode="&#x2000;" horiz-adv-x="918" />
<glyph unicode="&#x2001;" horiz-adv-x="1837" />
<glyph unicode="&#x2002;" horiz-adv-x="918" />
<glyph unicode="&#x2003;" horiz-adv-x="1837" />
<glyph unicode="&#x2004;" horiz-adv-x="612" />
<glyph unicode="&#x2005;" horiz-adv-x="459" />
<glyph unicode="&#x2006;" horiz-adv-x="306" />
<glyph unicode="&#x2007;" horiz-adv-x="306" />
<glyph unicode="&#x2008;" horiz-adv-x="229" />
<glyph unicode="&#x2009;" horiz-adv-x="367" />
<glyph unicode="&#x200a;" horiz-adv-x="102" />
<glyph unicode="&#x2010;" horiz-adv-x="569" d="M80 373v192q0 20 20 21h369q20 0 20 -21v-192q0 -20 -20 -21h-369q-20 0 -20 21z" />
<glyph unicode="&#x2011;" horiz-adv-x="569" d="M80 373v192q0 20 20 21h369q20 0 20 -21v-192q0 -20 -20 -21h-369q-20 0 -20 21z" />
<glyph unicode="&#x2012;" horiz-adv-x="569" d="M80 373v192q0 20 20 21h369q20 0 20 -21v-192q0 -20 -20 -21h-369q-20 0 -20 21z" />
<glyph unicode="&#x2013;" d="M31 430v135q0 20 20 21h936q20 0 21 -21v-135q0 -20 -21 -20h-936q-20 0 -20 20z" />
<glyph unicode="&#x2014;" horiz-adv-x="1566" d="M31 430v135q0 20 20 21h1465q20 0 20 -21v-135q0 -20 -20 -20h-1465q-20 0 -20 20z" />
<glyph unicode="&#x2018;" horiz-adv-x="387" d="M70 893v141q0 168 75 256q41 47 78 69.5t51 22.5q10 0 17 -12l53 -104q4 -8 4 -13q0 -8 -14.5 -17t-31.5 -23.5t-31.5 -35t-14.5 -53.5q0 -25 20 -24h17q20 0 20 -21v-186q0 -20 -20 -21h-203q-20 0 -20 21z" />
<glyph unicode="&#x2019;" horiz-adv-x="387" d="M43 911q0 8 13.5 17.5t30.5 24t30.5 35t13.5 50.5q0 23 -20 23h-17q-20 0 -20 20v189q0 20 20 20h203q20 0 20 -20v-142q0 -84 -17 -145t-58 -109q-41 -47 -78 -68.5t-49 -21.5q-8 0 -15 13l-53 102q-4 8 -4 12z" />
<glyph unicode="&#x201a;" horiz-adv-x="387" d="M43 -106q0 6 13.5 16t30.5 25.5t30.5 37t13.5 50.5q0 23 -20 22h-17q-20 0 -20 21v188q0 20 20 20h203q20 0 20 -20v-143q0 -168 -73 -254q-41 -47 -78 -68.5t-51 -21.5q-10 0 -15 10l-53 104q-4 8 -4 13z" />
<glyph unicode="&#x201c;" horiz-adv-x="708" d="M70 893v141q0 168 75 256q41 47 78 69.5t51 22.5q10 0 17 -12l53 -104q4 -8 4 -13q0 -8 -14.5 -17t-31.5 -23.5t-31.5 -35t-14.5 -53.5q0 -25 20 -24h17q20 0 20 -21v-186q0 -20 -20 -21h-203q-20 0 -20 21zM391 893v141q0 84 17.5 146.5t58.5 107.5q43 49 79 71.5 t50 22.5q10 0 16 -12l54 -104q2 -4 2 -11q0 -10 -13 -18q-31 -23 -55.5 -43t-24.5 -70q0 -25 21 -24h18q20 0 21 -21v-186q0 -20 -21 -21h-202q-20 0 -21 21z" />
<glyph unicode="&#x201d;" horiz-adv-x="708" d="M43 911q0 8 13.5 17.5t30.5 24t30.5 35t13.5 50.5q0 23 -20 23h-17q-20 0 -20 20v189q0 20 20 20h203q20 0 20 -20v-142q0 -84 -17 -145t-58 -109q-41 -47 -78 -68.5t-49 -21.5q-8 0 -15 13l-53 102q-4 8 -4 12zM362 911q0 8 15 19q31 23 53.5 44t22.5 64q0 23 -21 23 h-18q-20 0 -21 20v189q0 20 21 20h204q20 0 21 -20v-142q0 -166 -74 -251q-41 -47 -76.5 -70t-50.5 -23q-8 0 -14 13l-57 104z" />
<glyph unicode="&#x201e;" horiz-adv-x="708" d="M43 -106q0 6 13.5 16t30.5 25.5t30.5 37t13.5 50.5q0 23 -20 22h-17q-20 0 -20 21v188q0 20 20 20h203q20 0 20 -20v-143q0 -168 -73 -254q-41 -47 -78 -68.5t-51 -21.5q-10 0 -15 10l-53 104q-4 8 -4 13zM362 -106q0 8 14.5 17t31 24.5t31 36t14.5 51.5q0 23 -21 22h-18 q-20 0 -21 21v188q0 20 21 20h204q20 0 21 -20v-143q0 -166 -74 -252q-41 -49 -76.5 -70.5t-50.5 -21.5q-10 0 -14 10l-57 104q-4 8 -5 13z" />
<glyph unicode="&#x2022;" horiz-adv-x="901" d="M125 625v41q0 68 22.5 123t64.5 95t101.5 61.5t132.5 21.5h9q147 0 234 -83t87 -218v-41q0 -68 -22.5 -124.5t-64.5 -96t-101.5 -61t-132.5 -21.5h-9q-74 0 -133 21.5t-101 61t-64.5 96t-22.5 124.5z" />
<glyph unicode="&#x2026;" horiz-adv-x="937" d="M119 358v60q0 37 12 74.5t31 64.5q35 49 55.5 74.5t20.5 32.5q0 2 -9 14q-20 27 -39.5 51.5t-35 51t-25.5 55t-10 63.5v29q0 176 103.5 279.5t279.5 103.5h57q174 0 268 -97q51 -51 73 -93t22 -52q0 -8 -13 -14l-176 -90l-6 -3t-6 -1q-8 0 -13.5 9t-13.5 23 q-29 51 -58.5 77t-76.5 26h-57q-61 0 -104.5 -43t-43.5 -105v-28q0 -61 43 -104.5t105 -43.5h184q20 0 21 -20v-174q0 -20 -21 -21h-184q-63 0 -105.5 -42t-42.5 -103v-70q0 -61 43 -104t105 -43h57q96 0 143 120q2 14 17 15q6 0 10 -2l178 -88q12 -6 13 -17 q0 -14 -21.5 -54t-73.5 -93q-92 -96 -266 -96h-57q-178 0 -280.5 101t-102.5 277z" />
<glyph unicode="&#x202f;" horiz-adv-x="367" />
<glyph unicode="&#x2039;" horiz-adv-x="702" d="M98 502v145l8 17l443 315q8 6 16 6q16 0 17 -22v-183l-9 -16l-241 -172q-10 -8 -10 -17q0 -8 10 -16l241 -174l9 -16v-181q0 -23 -17 -22q-8 0 -16 6l-443 313z" />
<glyph unicode="&#x203a;" horiz-adv-x="702" d="M121 188v181l8 16l240 174q10 6 10 16t-10 17l-240 172l-8 16v183q0 23 16 22q6 0 17 -6l442 -315l8 -17v-145l-8 -17l-442 -313q-10 -6 -17 -6q-16 0 -16 22z" />
<glyph unicode="&#x205f;" horiz-adv-x="459" />
<glyph unicode="&#x2122;" horiz-adv-x="876" d="M82 1079v23q0 20 20 20h217q20 0 21 -20v-23q0 -20 -21 -20h-55q-20 0 -20 -21v-280q0 -20 -21 -21h-24q-20 0 -21 21v280q0 20 -20 21h-56q-20 0 -20 20zM418 758v344q0 20 20 20h25l18 -10l97 -166q10 -14 18 -14t18 14l97 166l18 10h25q20 0 20 -20v-344 q0 -20 -20 -21h-25q-20 0 -20 21v147q0 25 -21 25q-8 0 -18 -15l-52 -84l-18 -10h-8l-17 10l-55 84q-10 12 -20 13q-16 0 -17 -23v-147q0 -20 -20 -21h-25q-20 0 -20 21z" />
<glyph unicode="&#x25fc;" horiz-adv-x="942" d="M0 0v942h942v-942h-942z" />
</font>
</defs>
</svg>
